<svg width="1548" height="925" viewBox="0 0 1548 925" fill="none" xmlns="http://www.w3.org/2000/svg">
<g clip-path="url(#clip0_2179_8)">
<rect width="1548" height="923.425" transform="translate(0 0.787476)" fill="#160042"/>
<g clip-path="url(#clip1_2179_8)">
<rect opacity="0.4" x="1419" y="355.538" width="1290" height="645" transform="rotate(180 1419 355.538)" fill="url(#paint0_radial_2179_8)"/>
</g>
<mask id="mask0_2179_8" style="mask-type:alpha" maskUnits="userSpaceOnUse" x="35" y="-660" width="1220" height="1183">
<rect x="802.344" y="522.708" width="937.4" height="785.825" transform="rotate(-144.893 802.344 522.708)" fill="url(#paint1_radial_2179_8)"/>
</mask>
<g mask="url(#mask0_2179_8)">
</g>
<g clip-path="url(#clip2_2179_8)">
<g opacity="0.7">
<path opacity="0.11" d="M715.44 83.5186C714.743 83.4927 714.157 84.0369 714.131 84.734C714.105 85.4311 714.649 86.0173 715.346 86.0431C716.043 86.069 716.629 85.5248 716.655 84.8277C716.681 84.1306 716.137 83.5445 715.44 83.5186Z" fill="white"/>
<path d="M711.599 76.4274C711.077 76.408 710.637 76.816 710.618 77.3387C710.598 77.8614 711.006 78.3008 711.529 78.3202C712.052 78.3396 712.491 77.9316 712.511 77.4089C712.53 76.8862 712.122 76.4468 711.599 76.4274Z" fill="white"/>
<path d="M690.286 88.9009C689.763 88.8815 689.324 89.2895 689.304 89.8122C689.285 90.3349 689.693 90.7743 690.216 90.7937C690.738 90.8131 691.178 90.4051 691.197 89.8824C691.217 89.3597 690.809 88.9203 690.286 88.9009Z" fill="white"/>
<path d="M743.865 92.1558C743.342 92.1364 742.903 92.5444 742.883 93.0671C742.864 93.5898 743.272 94.0292 743.795 94.0486C744.317 94.068 744.757 93.66 744.776 93.1373C744.796 92.6146 744.388 92.1751 743.865 92.1558Z" fill="white"/>
<path opacity="0.11" d="M775.658 78.1739C774.96 78.148 774.374 78.6922 774.348 79.3893C774.323 80.0864 774.867 80.6725 775.564 80.6984C776.261 80.7243 776.847 80.1801 776.873 79.483C776.899 78.7858 776.355 78.1997 775.658 78.1739Z" fill="white"/>
<path d="M787.127 92.4963C786.779 92.4834 786.486 92.7552 786.473 93.1035C786.46 93.4518 786.732 93.7446 787.08 93.7575C787.429 93.7704 787.721 93.4986 787.734 93.1503C787.747 92.802 787.475 92.5092 787.127 92.4963Z" fill="white"/>
<path d="M718.25 58.9864C717.902 58.9735 717.609 59.2453 717.596 59.5936C717.583 59.9419 717.855 60.2347 718.203 60.2476C718.552 60.2605 718.844 59.9887 718.857 59.6404C718.87 59.2921 718.598 58.9993 718.25 58.9864Z" fill="white"/>
<path d="M580.713 53.879C580.365 53.8661 580.072 54.1379 580.059 54.4862C580.046 54.8345 580.318 55.1273 580.666 55.1402C581.015 55.1531 581.307 54.8813 581.32 54.533C581.333 54.1847 581.061 53.8919 580.713 53.879Z" fill="white"/>
<path d="M510.685 85.3985C510.336 85.3856 510.044 85.6575 510.031 86.0057C510.018 86.354 510.29 86.6468 510.638 86.6597C510.986 86.6726 511.279 86.4008 511.292 86.0525C511.305 85.7043 511.033 85.4115 510.685 85.3985Z" fill="white"/>
<path d="M487.787 38.4276C487.439 38.4147 487.146 38.6865 487.133 39.0348C487.12 39.383 487.392 39.6758 487.74 39.6888C488.089 39.7017 488.382 39.4298 488.394 39.0816C488.407 38.7333 488.136 38.4405 487.787 38.4276Z" fill="white"/>
<path d="M927.75 82.5537C927.402 82.5407 927.109 82.8126 927.096 83.1609C927.083 83.5091 927.355 83.8019 927.703 83.8149C928.052 83.8278 928.344 83.5559 928.357 83.2077C928.37 82.8594 928.098 82.5666 927.75 82.5537Z" fill="white"/>
<path opacity="0.11" d="M935.945 116.972C935.596 116.959 935.303 117.231 935.291 117.579C935.278 117.927 935.549 118.22 935.898 118.233C936.246 118.246 936.539 117.974 936.552 117.626C936.565 117.278 936.293 116.985 935.945 116.972Z" fill="white"/>
<path opacity="0.11" d="M963.61 103.467C963.261 103.454 962.968 103.726 962.956 104.074C962.943 104.422 963.215 104.715 963.563 104.728C963.911 104.741 964.204 104.469 964.217 104.121C964.23 103.773 963.958 103.48 963.61 103.467Z" fill="white"/>
<path opacity="0.11" d="M944.196 64.8409C943.848 64.828 943.555 65.0998 943.542 65.4481C943.53 65.7964 943.801 66.0892 944.15 66.1021C944.498 66.115 944.791 65.8432 944.804 65.4949C944.817 65.1466 944.545 64.8539 944.196 64.8409Z" fill="white"/>
<path opacity="0.11" d="M793.112 84.5089C792.763 84.496 792.47 84.7678 792.458 85.1161C792.445 85.4644 792.716 85.7571 793.065 85.7701C793.413 85.783 793.706 85.5112 793.719 85.1629C793.732 84.8146 793.46 84.5218 793.112 84.5089Z" fill="white"/>
<path opacity="0.11" d="M720.349 36.3169C720.001 36.304 719.708 36.5758 719.695 36.9241C719.682 37.2723 719.954 37.5651 720.302 37.578C720.65 37.591 720.943 37.3191 720.956 36.9709C720.969 36.6226 720.697 36.3298 720.349 36.3169Z" fill="white"/>
<path opacity="0.11" d="M598.988 38.1347C598.64 38.1218 598.347 38.3937 598.334 38.7419C598.322 39.0902 598.593 39.383 598.942 39.3959C599.29 39.4088 599.583 39.137 599.596 38.7887C599.609 38.4404 599.337 38.1476 598.988 38.1347Z" fill="white"/>
<path opacity="0.3" d="M898.142 97.2487C897.794 97.2358 897.501 97.5077 897.488 97.8559C897.475 98.2042 897.747 98.497 898.095 98.5099C898.443 98.5228 898.736 98.251 898.749 97.9027C898.762 97.5545 898.49 97.2617 898.142 97.2487Z" fill="white"/>
<path d="M751.774 125.933C751.425 125.921 751.133 126.192 751.12 126.541C751.107 126.889 751.379 127.182 751.727 127.195C752.075 127.208 752.368 126.936 752.381 126.587C752.394 126.239 752.122 125.946 751.774 125.933Z" fill="white"/>
<path d="M654.572 123.589C654.224 123.576 653.931 123.848 653.918 124.197C653.906 124.545 654.177 124.838 654.526 124.851C654.874 124.863 655.167 124.592 655.18 124.243C655.193 123.895 654.921 123.602 654.572 123.589Z" fill="white"/>
<path d="M796.827 69.4823C796.479 69.4694 796.186 69.7412 796.173 70.0895C796.16 70.4378 796.432 70.7305 796.781 70.7434C797.129 70.7564 797.422 70.4845 797.435 70.1363C797.447 69.788 797.176 69.4952 796.827 69.4823Z" fill="white"/>
<path opacity="0.3" d="M840.991 71.121C840.643 71.108 840.35 71.3799 840.337 71.7282C840.324 72.0764 840.596 72.3692 840.945 72.3821C841.293 72.395 841.586 72.1232 841.599 71.775C841.612 71.4267 841.34 71.1339 840.991 71.121Z" fill="white"/>
<path opacity="0.11" d="M891.268 112.154C890.92 112.141 890.627 112.413 890.614 112.761C890.601 113.109 890.873 113.402 891.221 113.415C891.569 113.428 891.862 113.156 891.875 112.808C891.888 112.459 891.616 112.167 891.268 112.154Z" fill="white"/>
<path opacity="0.3" d="M740.975 110.368C740.627 110.355 740.334 110.627 740.321 110.975C740.308 111.323 740.58 111.616 740.928 111.629C741.276 111.642 741.569 111.37 741.582 111.022C741.595 110.674 741.323 110.381 740.975 110.368Z" fill="white"/>
<path opacity="0.3" d="M786.543 57.0954C786.195 57.0825 785.902 57.3543 785.889 57.7026C785.876 58.0509 786.148 58.3437 786.496 58.3566C786.845 58.3695 787.137 58.0977 787.15 57.7494C787.163 57.4011 786.891 57.1083 786.543 57.0954Z" fill="white"/>
<path opacity="0.3" d="M863.117 53.621C862.769 53.608 862.476 53.8799 862.463 54.2282C862.45 54.5764 862.722 54.8692 863.071 54.8821C863.419 54.895 863.712 54.6232 863.725 54.275C863.737 53.9267 863.466 53.6339 863.117 53.621Z" fill="white"/>
<path opacity="0.3" d="M879.844 96.566C879.496 96.5531 879.203 96.8249 879.19 97.1732C879.177 97.5215 879.449 97.8143 879.797 97.8272C880.145 97.8401 880.438 97.5683 880.451 97.22C880.464 96.8717 880.192 96.5789 879.844 96.566Z" fill="white"/>
<path opacity="0.3" d="M487.366 83.9005C487.018 83.8876 486.725 84.1594 486.712 84.5077C486.699 84.8559 486.971 85.1487 487.32 85.1617C487.668 85.1746 487.961 84.9027 487.974 84.5545C487.987 84.2062 487.715 83.9134 487.366 83.9005Z" fill="white"/>
<path opacity="0.11" d="M587.98 113.537C587.631 113.524 587.339 113.796 587.326 114.144C587.313 114.492 587.585 114.785 587.933 114.798C588.281 114.811 588.574 114.539 588.587 114.191C588.6 113.842 588.328 113.55 587.98 113.537Z" fill="white"/>
<path opacity="0.11" d="M505.405 57.4065C505.057 57.3935 504.764 57.6654 504.751 58.0137C504.739 58.3619 505.01 58.6547 505.359 58.6676C505.707 58.6806 506 58.4087 506.013 58.0605C506.026 57.7122 505.754 57.4194 505.405 57.4065Z" fill="white"/>
<path opacity="0.3" d="M665.233 57.6487C664.536 57.6229 663.95 58.167 663.924 58.8642C663.898 59.5613 664.442 60.1474 665.139 60.1733C665.836 60.1991 666.422 59.6549 666.448 58.9578C666.474 58.2607 665.93 57.6746 665.233 57.6487Z" fill="white"/>
<path opacity="0.11" d="M627.306 75.1937C626.609 75.1678 626.023 75.712 625.997 76.4091C625.971 77.1062 626.515 77.6923 627.212 77.7182C627.909 77.744 628.496 77.1999 628.521 76.5028C628.547 75.8056 628.003 75.2195 627.306 75.1937Z" fill="white"/>
<path d="M626.8 97.2851C626.277 97.2657 625.837 97.6737 625.818 98.1964C625.799 98.7191 626.207 99.1585 626.729 99.1779C627.252 99.1973 627.692 98.7893 627.711 98.2666C627.73 97.7439 627.322 97.3044 626.8 97.2851Z" fill="white"/>
<path d="M672.787 32.6568C672.264 32.6374 671.825 33.0454 671.805 33.5681C671.786 34.0908 672.194 34.5302 672.717 34.5496C673.239 34.569 673.679 34.161 673.698 33.6383C673.718 33.1156 673.31 32.6762 672.787 32.6568Z" fill="white"/>
<path d="M463.804 12.2681C463.282 12.2487 462.842 12.6567 462.823 13.1794C462.804 13.7021 463.211 14.1415 463.734 14.1609C464.257 14.1803 464.696 13.7723 464.716 13.2496C464.735 12.7269 464.327 12.2875 463.804 12.2681Z" fill="white"/>
<path d="M872.853 38.1886C872.331 38.1692 871.891 38.5772 871.872 39.0999C871.852 39.6226 872.26 40.0621 872.783 40.0815C873.306 40.1009 873.745 39.6928 873.765 39.1701C873.784 38.6474 873.376 38.208 872.853 38.1886Z" fill="white"/>
<path d="M956.218 55.8098C955.695 55.7904 955.255 56.1985 955.236 56.7212C955.217 57.2439 955.625 57.6833 956.147 57.7027C956.67 57.7221 957.109 57.3141 957.129 56.7914C957.148 56.2687 956.74 55.8292 956.218 55.8098Z" fill="white"/>
<path d="M966.008 81.4441C965.485 81.4247 965.045 81.8327 965.026 82.3554C965.007 82.8781 965.415 83.3176 965.937 83.337C966.46 83.3563 966.9 82.9483 966.919 82.4256C966.938 81.9029 966.53 81.4635 966.008 81.4441Z" fill="white"/>
<path d="M657.549 85.7891C657.026 85.7697 656.586 86.1777 656.567 86.7004C656.548 87.2231 656.956 87.6625 657.478 87.6819C658.001 87.7013 658.441 87.2933 658.46 86.7706C658.479 86.2479 658.071 85.8085 657.549 85.7891Z" fill="white"/>
<path d="M769.055 43.1798C768.533 43.1604 768.093 43.5684 768.074 44.0911C768.055 44.6138 768.463 45.0533 768.985 45.0727C769.508 45.0921 769.947 44.684 769.967 44.1614C769.986 43.6387 769.578 43.1992 769.055 43.1798Z" fill="white"/>
<path d="M611.079 10.151C610.556 10.1316 610.117 10.5396 610.097 11.0623C610.078 11.585 610.486 12.0245 611.009 12.0439C611.531 12.0633 611.971 11.6552 611.99 11.1325C612.01 10.6098 611.602 10.1704 611.079 10.151Z" fill="white"/>
<path d="M442.305 46.8499C441.783 46.8305 441.343 47.2385 441.324 47.7612C441.305 48.2839 441.713 48.7233 442.235 48.7427C442.758 48.7621 443.197 48.3541 443.217 47.8314C443.236 47.3087 442.828 46.8693 442.305 46.8499Z" fill="white"/>
<path d="M425.875 80.9839C425.352 80.9645 424.913 81.3725 424.893 81.8952C424.874 82.4179 425.282 82.8574 425.805 82.8768C426.327 82.8961 426.767 82.4881 426.786 81.9654C426.805 81.4427 426.397 81.0033 425.875 80.9839Z" fill="white"/>
<path opacity="0.3" d="M574.772 94.7231C574.075 94.6972 573.489 95.2414 573.463 95.9385C573.437 96.6356 573.981 97.2217 574.678 97.2476C575.375 97.2735 575.961 96.7293 575.987 96.0322C576.013 95.3351 575.469 94.749 574.772 94.7231Z" fill="white"/>
<path d="M573.116 139.517C572.418 139.491 571.832 140.035 571.806 140.732C571.781 141.429 572.325 142.015 573.022 142.041C573.719 142.067 574.305 141.523 574.331 140.826C574.357 140.129 573.813 139.543 573.116 139.517Z" fill="white"/>
<path d="M542.798 79.6374C542.275 79.618 541.835 80.026 541.816 80.5487C541.797 81.0714 542.205 81.5108 542.727 81.5302C543.25 81.5496 543.69 81.1416 543.709 80.6189C543.728 80.0962 543.32 79.6567 542.798 79.6374Z" fill="white"/>
<path opacity="0.3" d="M511.285 103.106C510.587 103.08 510.001 103.624 509.975 104.321C509.95 105.019 510.494 105.605 511.191 105.631C511.888 105.656 512.474 105.112 512.5 104.415C512.526 103.718 511.982 103.132 511.285 103.106Z" fill="white"/>
<path opacity="0.3" d="M450.491 55.9957C449.793 55.9698 449.207 56.514 449.182 57.2111C449.156 57.9082 449.7 58.4943 450.397 58.5202C451.094 58.546 451.68 58.0019 451.706 57.3048C451.732 56.6076 451.188 56.0215 450.491 55.9957Z" fill="white"/>
<path opacity="0.3" d="M524.352 57.4748C523.655 57.4489 523.069 57.9931 523.043 58.6902C523.017 59.3873 523.561 59.9734 524.258 59.9993C524.955 60.0252 525.541 59.481 525.567 58.7839C525.593 58.0868 525.049 57.5007 524.352 57.4748Z" fill="white"/>
<path opacity="0.3" d="M886.877 60.1879C886.18 60.1621 885.594 60.7062 885.568 61.4034C885.542 62.1005 886.087 62.6866 886.784 62.7124C887.481 62.7383 888.067 62.1942 888.093 61.497C888.119 60.7999 887.574 60.2138 886.877 60.1879Z" fill="white"/>
<path opacity="0.3" d="M936.699 96.7842C936.001 96.7584 935.415 97.3026 935.39 97.9997C935.364 98.6968 935.908 99.2829 936.605 99.3088C937.302 99.3346 937.888 98.7905 937.914 98.0933C937.94 97.3962 937.396 96.8101 936.699 96.7842Z" fill="white"/>
<path opacity="0.11" d="M475.655 75.8822C474.958 75.8563 474.371 76.4004 474.346 77.0976C474.32 77.7947 474.864 78.3808 475.561 78.4067C476.258 78.4325 476.844 77.8884 476.87 77.1912C476.896 76.4941 476.352 75.908 475.655 75.8822Z" fill="white"/>
<path opacity="0.3" d="M845.686 114.885C844.989 114.859 844.403 115.404 844.377 116.101C844.351 116.798 844.895 117.384 845.592 117.41C846.289 117.436 846.875 116.891 846.901 116.194C846.927 115.497 846.383 114.911 845.686 114.885Z" fill="white"/>
<path opacity="0.11" d="M862.25 128.137C861.553 128.111 860.967 128.655 860.941 129.352C860.915 130.049 861.46 130.635 862.157 130.661C862.854 130.687 863.44 130.143 863.466 129.446C863.492 128.749 862.947 128.162 862.25 128.137Z" fill="white"/>
<path opacity="0.3" d="M868.791 87.9445C868.094 87.9186 867.508 88.4628 867.482 89.1599C867.456 89.8571 868.001 90.4432 868.698 90.469C869.395 90.4949 869.981 89.9507 870.007 89.2536C870.033 88.5565 869.488 87.9704 868.791 87.9445Z" fill="white"/>
<path d="M829.344 87.1145C828.821 87.0951 828.381 87.5032 828.362 88.0258C828.343 88.5485 828.751 88.988 829.273 89.0074C829.796 89.0268 830.235 88.6188 830.255 88.0961C830.274 87.5734 829.866 87.1339 829.344 87.1145Z" fill="white"/>
<path opacity="0.11" d="M607.872 5.81249C607.524 5.79957 607.231 6.07139 607.218 6.41965C607.205 6.76792 607.477 7.06073 607.825 7.07365C608.174 7.08657 608.467 6.81471 608.479 6.46645C608.492 6.11818 608.221 5.82541 607.872 5.81249Z" fill="white"/>
<path d="M423.703 14.7744C423.355 14.7615 423.062 15.0333 423.049 15.3816C423.036 15.7299 423.308 16.0226 423.656 16.0356C424.005 16.0485 424.298 15.7766 424.311 15.4284C424.323 15.0801 424.052 14.7873 423.703 14.7744Z" fill="white"/>
<path d="M326.499 12.4299C326.151 12.417 325.858 12.6888 325.845 13.0371C325.832 13.3854 326.104 13.6782 326.452 13.6911C326.801 13.704 327.093 13.4321 327.106 13.0839C327.119 12.7356 326.848 12.4428 326.499 12.4299Z" fill="white"/>
<path opacity="0.11" d="M563.194 0.994738C562.845 0.981816 562.552 1.25367 562.54 1.60194C562.527 1.9502 562.798 2.24298 563.147 2.2559C563.495 2.26882 563.788 1.997 563.801 1.64873C563.814 1.30047 563.542 1.00766 563.194 0.994738Z" fill="white"/>
<path opacity="0.11" d="M259.906 2.37802C259.558 2.36509 259.265 2.63694 259.252 2.98521C259.24 3.33347 259.511 3.62628 259.86 3.6392C260.208 3.65212 260.501 3.38027 260.514 3.032C260.527 2.68373 260.255 2.39094 259.906 2.37802Z" fill="white"/>
<path d="M245.042 28.3574C244.345 28.3315 243.759 28.8757 243.733 29.5728C243.707 30.2699 244.252 30.856 244.949 30.8819C245.646 30.9077 246.232 30.3636 246.258 29.6665C246.284 28.9693 245.739 28.3832 245.042 28.3574Z" fill="white"/>
<path opacity="0.3" d="M517.612 3.72637C516.915 3.70051 516.328 4.24468 516.303 4.9418C516.277 5.63893 516.821 6.22503 517.518 6.2509C518.215 6.27676 518.801 5.73259 518.827 5.03547C518.853 4.33834 518.309 3.75224 517.612 3.72637Z" fill="white"/>
<path opacity="0.11" d="M534.178 16.9761C533.481 16.9503 532.895 17.4944 532.869 18.1916C532.843 18.8887 533.387 19.4748 534.084 19.5007C534.782 19.5265 535.368 18.9824 535.394 18.2852C535.419 17.5881 534.875 17.002 534.178 16.9761Z" fill="white"/>
</g>
</g>
<g filter="url(#filter0_f_2179_8)">
<g opacity="0.8" filter="url(#filter1_f_2179_8)">
<path d="M1120.3 -601.568L1148.26 -585.42L864.978 -94.7556L663.869 234.572L837.01 -110.903L1120.3 -601.568Z" fill="url(#paint2_linear_2179_8)"/>
</g>
<g opacity="0.8" filter="url(#filter2_f_2179_8)">
<path d="M1024.33 -677.328L1052.3 -661.181L769.012 -170.516L567.903 158.812L741.044 -186.663L1024.33 -677.328Z" fill="url(#paint3_linear_2179_8)"/>
</g>
<g style="mix-blend-mode:soft-light" opacity="0.8" filter="url(#filter3_f_2179_8)">
<path d="M1234.44 -651.774L1262.4 -635.626L979.119 -144.962L778.01 184.366L951.151 -161.109L1234.44 -651.774Z" fill="url(#paint4_linear_2179_8)"/>
</g>
<g style="mix-blend-mode:overlay" filter="url(#filter4_f_2179_8)">
<path d="M1053.05 -593.199L1081.02 -577.052L797.73 -86.3873L596.621 242.94L769.762 -102.535L1053.05 -593.199Z" fill="url(#paint5_linear_2179_8)"/>
</g>
<g opacity="0.8" filter="url(#filter5_f_2179_8)">
<path d="M1120.3 -601.568L1148.26 -585.42L864.978 -94.7556L663.869 234.572L837.01 -110.903L1120.3 -601.568Z" fill="url(#paint6_linear_2179_8)"/>
</g>
<g opacity="0.8" filter="url(#filter6_f_2179_8)">
<path d="M1024.33 -677.328L1052.3 -661.181L769.012 -170.516L567.903 158.812L741.044 -186.663L1024.33 -677.328Z" fill="url(#paint7_linear_2179_8)"/>
</g>
<g style="mix-blend-mode:soft-light" opacity="0.8" filter="url(#filter7_f_2179_8)">
<path d="M1234.44 -651.774L1262.4 -635.626L979.119 -144.962L778.01 184.366L951.151 -161.109L1234.44 -651.774Z" fill="url(#paint8_linear_2179_8)"/>
</g>
<g style="mix-blend-mode:overlay" filter="url(#filter8_f_2179_8)">
<path d="M1053.05 -593.199L1081.02 -577.052L797.73 -86.3873L596.621 242.94L769.762 -102.535L1053.05 -593.199Z" fill="url(#paint9_linear_2179_8)"/>
</g>
<g opacity="0.8" filter="url(#filter9_f_2179_8)">
<path d="M1120.3 -601.568L1148.26 -585.42L864.978 -94.7556L663.869 234.572L837.01 -110.903L1120.3 -601.568Z" fill="url(#paint10_linear_2179_8)"/>
</g>
<g opacity="0.8" filter="url(#filter10_f_2179_8)">
<path d="M1024.33 -677.328L1052.3 -661.181L769.012 -170.516L567.903 158.812L741.044 -186.663L1024.33 -677.328Z" fill="url(#paint11_linear_2179_8)"/>
</g>
<g style="mix-blend-mode:soft-light" opacity="0.8" filter="url(#filter11_f_2179_8)">
<path d="M1234.44 -651.774L1262.4 -635.626L979.119 -144.962L778.01 184.366L951.151 -161.109L1234.44 -651.774Z" fill="url(#paint12_linear_2179_8)"/>
</g>
<g style="mix-blend-mode:overlay" filter="url(#filter12_f_2179_8)">
<path d="M1053.05 -593.199L1081.02 -577.052L797.73 -86.3873L596.621 242.94L769.762 -102.535L1053.05 -593.199Z" fill="url(#paint13_linear_2179_8)"/>
</g>
<g opacity="0.8" filter="url(#filter13_f_2179_8)">
<path d="M1120.3 -601.569L1148.26 -585.421L864.979 -94.7564L663.87 234.571L837.011 -110.904L1120.3 -601.569Z" fill="url(#paint14_linear_2179_8)"/>
</g>
<g opacity="0.8" filter="url(#filter14_f_2179_8)">
<path d="M1011.53 -663.703L1039.49 -647.555L756.209 -156.89L555.1 172.437L728.241 -173.038L1011.53 -663.703Z" fill="url(#paint15_linear_2179_8)"/>
</g>
<g style="mix-blend-mode:soft-light" opacity="0.8" filter="url(#filter15_f_2179_8)">
<path d="M1234.44 -651.775L1262.41 -635.627L979.12 -144.962L778.011 184.365L951.152 -161.11L1234.44 -651.775Z" fill="url(#paint16_linear_2179_8)"/>
</g>
<g style="mix-blend-mode:overlay" filter="url(#filter16_f_2179_8)">
<path d="M1145.12 -613.279L1173.08 -597.132L889.798 -106.467L688.689 222.861L861.83 -122.614L1145.12 -613.279Z" fill="url(#paint17_linear_2179_8)"/>
</g>
<g style="mix-blend-mode:overlay" filter="url(#filter17_f_2179_8)">
<path d="M985.233 -445.148L1013.2 -429.001L729.916 61.6638L528.807 390.991L701.948 45.5166L985.233 -445.148Z" fill="url(#paint18_linear_2179_8)"/>
</g>
</g>
<g opacity="0.8" filter="url(#filter18_f_2179_8)">
<path d="M1120.3 -601.568L1148.26 -585.42L864.978 -94.7556L663.869 234.572L837.01 -110.903L1120.3 -601.568Z" fill="url(#paint19_linear_2179_8)"/>
</g>
<g opacity="0.8" filter="url(#filter19_f_2179_8)">
<path d="M1024.33 -677.328L1052.3 -661.181L769.012 -170.516L567.903 158.812L741.044 -186.663L1024.33 -677.328Z" fill="url(#paint20_linear_2179_8)"/>
</g>
<g style="mix-blend-mode:soft-light" opacity="0.8" filter="url(#filter20_f_2179_8)">
<path d="M1234.44 -651.774L1262.4 -635.626L979.119 -144.962L778.01 184.366L951.151 -161.109L1234.44 -651.774Z" fill="url(#paint21_linear_2179_8)"/>
</g>
<g style="mix-blend-mode:overlay" filter="url(#filter21_f_2179_8)">
<path d="M1053.05 -593.199L1081.02 -577.052L797.73 -86.3873L596.621 242.94L769.762 -102.535L1053.05 -593.199Z" fill="url(#paint22_linear_2179_8)"/>
</g>
<g opacity="0.8" filter="url(#filter22_f_2179_8)">
<path d="M1120.3 -601.568L1148.26 -585.42L864.978 -94.7556L663.869 234.572L837.01 -110.903L1120.3 -601.568Z" fill="url(#paint23_linear_2179_8)"/>
</g>
<g opacity="0.8" filter="url(#filter23_f_2179_8)">
<path d="M1024.33 -677.328L1052.3 -661.181L769.012 -170.516L567.903 158.812L741.044 -186.663L1024.33 -677.328Z" fill="url(#paint24_linear_2179_8)"/>
</g>
<g style="mix-blend-mode:soft-light" opacity="0.8" filter="url(#filter24_f_2179_8)">
<path d="M1234.44 -651.774L1262.4 -635.626L979.119 -144.962L778.01 184.366L951.151 -161.109L1234.44 -651.774Z" fill="url(#paint25_linear_2179_8)"/>
</g>
<g style="mix-blend-mode:overlay" filter="url(#filter25_f_2179_8)">
<path d="M1053.05 -593.199L1081.02 -577.052L797.73 -86.3873L596.621 242.94L769.762 -102.535L1053.05 -593.199Z" fill="url(#paint26_linear_2179_8)"/>
</g>
<g opacity="0.8" filter="url(#filter26_f_2179_8)">
<path d="M1120.3 -601.568L1148.26 -585.42L864.978 -94.7556L663.869 234.572L837.01 -110.903L1120.3 -601.568Z" fill="url(#paint27_linear_2179_8)"/>
</g>
<g opacity="0.8" filter="url(#filter27_f_2179_8)">
<path d="M1024.33 -677.328L1052.3 -661.181L769.012 -170.516L567.903 158.812L741.044 -186.663L1024.33 -677.328Z" fill="url(#paint28_linear_2179_8)"/>
</g>
<g style="mix-blend-mode:soft-light" opacity="0.8" filter="url(#filter28_f_2179_8)">
<path d="M1234.44 -651.774L1262.4 -635.626L979.119 -144.962L778.01 184.366L951.151 -161.109L1234.44 -651.774Z" fill="url(#paint29_linear_2179_8)"/>
</g>
<g style="mix-blend-mode:overlay" filter="url(#filter29_f_2179_8)">
<path d="M1053.05 -593.199L1081.02 -577.052L797.73 -86.3873L596.621 242.94L769.762 -102.535L1053.05 -593.199Z" fill="url(#paint30_linear_2179_8)"/>
</g>
<g opacity="0.8" filter="url(#filter30_f_2179_8)">
<path d="M1120.3 -601.569L1148.26 -585.421L864.979 -94.7564L663.87 234.571L837.011 -110.904L1120.3 -601.569Z" fill="url(#paint31_linear_2179_8)"/>
</g>
<g opacity="0.8" filter="url(#filter31_f_2179_8)">
<path d="M1076.45 -625.908L1104.42 -609.761L821.136 -119.096L620.027 210.232L793.169 -135.243L1076.45 -625.908Z" fill="url(#paint32_linear_2179_8)"/>
</g>
<g opacity="0.8" filter="url(#filter32_f_2179_8)">
<path d="M1011.53 -663.703L1039.49 -647.555L756.209 -156.89L555.1 172.437L728.241 -173.038L1011.53 -663.703Z" fill="url(#paint33_linear_2179_8)"/>
</g>
<g style="mix-blend-mode:soft-light" opacity="0.8" filter="url(#filter33_f_2179_8)">
<path d="M1234.44 -651.775L1262.41 -635.627L979.12 -144.962L778.011 184.365L951.152 -161.11L1234.44 -651.775Z" fill="url(#paint34_linear_2179_8)"/>
</g>
<g style="mix-blend-mode:overlay" filter="url(#filter34_f_2179_8)">
<path d="M1145.12 -613.279L1173.08 -597.132L889.798 -106.467L688.689 222.861L861.83 -122.614L1145.12 -613.279Z" fill="url(#paint35_linear_2179_8)"/>
</g>
<g style="mix-blend-mode:overlay" filter="url(#filter35_f_2179_8)">
<path d="M985.233 -445.148L1013.2 -429.001L729.916 61.6638L528.807 390.991L701.948 45.5166L985.233 -445.148Z" fill="url(#paint36_linear_2179_8)"/>
</g>
<g style="mix-blend-mode:overlay">
<path d="M-168.744 -91.6766H-207.475V-47.8429M-168.744 -91.6766V-47.8429M-168.744 -91.6766H-130.013M-168.744 -47.8429H-207.475M-168.744 -47.8429V-4.00915M-168.744 -47.8429H-130.013M-207.475 -47.8429V-4.00915M-168.744 -4.00915H-207.475M-168.744 -4.00915V39.8246M-168.744 -4.00915H-130.013M-207.475 -4.00915V39.8246M-168.744 39.8246H-207.475M-168.744 39.8246V83.6583M-168.744 39.8246H-130.013M-207.475 39.8246V83.6583M-168.744 83.6583H-207.475M-168.744 83.6583V127.492M-168.744 83.6583H-130.013M-207.475 83.6583V127.492M-168.744 127.492H-207.475M-168.744 127.492V171.326M-168.744 127.492H-130.013M-207.475 127.492V171.326M-168.744 171.326H-207.475M-168.744 171.326V215.16M-168.744 171.326H-130.013M-207.475 171.326V215.16M-168.744 215.16H-207.475M-168.744 215.16V258.993M-168.744 215.16H-130.013M-207.475 215.16V258.993M-168.744 258.993H-207.475M-168.744 258.993V302.827M-168.744 258.993H-130.013M-207.475 258.993V302.827M-168.744 302.827H-207.475M-168.744 302.827V346.661M-168.744 302.827H-130.013M-207.475 302.827V346.661M-168.744 346.661H-207.475M-168.744 346.661V390.495M-168.744 346.661H-130.013M-207.475 346.661V390.495M-168.744 390.495H-207.475M-168.744 390.495V434.328M-168.744 390.495H-130.013M-207.475 390.495V434.328M-168.744 434.328H-207.475M-168.744 434.328V478.162M-168.744 434.328H-130.013M-207.475 434.328V478.162M-168.744 478.162H-207.475M-168.744 478.162V521.996M-168.744 478.162H-130.013M-207.475 478.162V521.996M-168.744 521.996H-207.475M-168.744 521.996V565.829M-168.744 521.996H-130.013M-207.475 521.996V565.829M-168.744 565.829H-207.475M-168.744 565.829V609.663M-168.744 565.829H-130.013M-207.475 565.829V609.663M-168.744 609.663H-207.475M-168.744 609.663V653.497M-168.744 609.663H-130.013M-207.475 609.663V653.497M-168.744 653.497H-207.475M-168.744 653.497V697.331M-168.744 653.497H-130.013M-207.475 653.497V697.331M-168.744 697.331H-207.475M-168.744 697.331V741.164M-168.744 697.331H-130.013M-207.475 697.331V741.164H-168.744M-168.744 741.164H-130.013M-130.013 -91.6766V-47.8429M-130.013 -91.6766H-91.282M-130.013 -47.8429V-4.00915M-130.013 -47.8429H-91.282M-130.013 -4.00915V39.8246M-130.013 -4.00915H-91.282M-130.013 39.8246V83.6583M-130.013 39.8246H-91.282M-130.013 83.6583V127.492M-130.013 83.6583H-91.282M-130.013 127.492V171.326M-130.013 127.492H-91.282M-130.013 171.326V215.16M-130.013 171.326H-91.282M-130.013 215.16V258.993M-130.013 215.16H-91.282M-130.013 258.993V302.827M-130.013 258.993H-91.282M-130.013 302.827V346.661M-130.013 302.827H-91.282M-130.013 346.661V390.495M-130.013 346.661H-91.282M-130.013 390.495V434.328M-130.013 390.495H-91.282M-130.013 434.328V478.162M-130.013 434.328H-91.282M-130.013 478.162V521.996M-130.013 478.162H-91.282M-130.013 521.996V565.829M-130.013 521.996H-91.282M-130.013 565.829V609.663M-130.013 565.829H-91.282M-130.013 609.663V653.497M-130.013 609.663H-91.282M-130.013 653.497V697.331M-130.013 653.497H-91.282M-130.013 697.331V741.164M-130.013 697.331H-91.282M-130.013 741.164H-91.282M-91.282 -91.6766V-47.8429M-91.282 -91.6766H-52.5512M-91.282 -47.8429V-4.00915M-91.282 -47.8429H-52.5512M-91.282 -4.00915V39.8246M-91.282 -4.00915H-52.5512M-91.282 39.8246V83.6583M-91.282 39.8246H-52.5512M-91.282 83.6583V127.492M-91.282 83.6583H-52.5512M-91.282 127.492V171.326M-91.282 127.492H-52.5512M-91.282 171.326V215.16M-91.282 171.326H-52.5512M-91.282 215.16V258.993M-91.282 215.16H-52.5512M-91.282 258.993V302.827M-91.282 258.993H-52.5512M-91.282 302.827V346.661M-91.282 302.827H-52.5512M-91.282 346.661V390.495M-91.282 346.661H-52.5512M-91.282 390.495V434.328M-91.282 390.495H-52.5512M-91.282 434.328V478.162M-91.282 434.328H-52.5512M-91.282 478.162V521.996M-91.282 478.162H-52.5512M-91.282 521.996V565.829M-91.282 521.996H-52.5512M-91.282 565.829V609.663M-91.282 565.829H-52.5512M-91.282 609.663V653.497M-91.282 609.663H-52.5512M-91.282 653.497V697.331M-91.282 653.497H-52.5512M-91.282 697.331V741.164M-91.282 697.331H-52.5512M-91.282 741.164H-52.5512M-52.5512 -91.6766V-47.8429M-52.5512 -91.6766H-13.8203M-52.5512 -47.8429V-4.00915M-52.5512 -47.8429H-13.8203M-52.5512 -4.00915V39.8246M-52.5512 -4.00915H-13.8203M-52.5512 39.8246V83.6583M-52.5512 39.8246H-13.8203M-52.5512 83.6583V127.492M-52.5512 83.6583H-13.8203M-52.5512 127.492V171.326M-52.5512 127.492H-13.8203M-52.5512 171.326V215.16M-52.5512 171.326H-13.8203M-52.5512 215.16V258.993M-52.5512 215.16H-13.8203M-52.5512 258.993V302.827M-52.5512 258.993H-13.8203M-52.5512 302.827V346.661M-52.5512 302.827H-13.8203M-52.5512 346.661V390.495M-52.5512 346.661H-13.8203M-52.5512 390.495V434.328M-52.5512 390.495H-13.8203M-52.5512 434.328V478.162M-52.5512 434.328H-13.8203M-52.5512 478.162V521.996M-52.5512 478.162H-13.8203M-52.5512 521.996V565.829M-52.5512 521.996H-13.8203M-52.5512 565.829V609.663M-52.5512 565.829H-13.8203M-52.5512 609.663V653.497M-52.5512 609.663H-13.8203M-52.5512 653.497V697.331M-52.5512 653.497H-13.8203M-52.5512 697.331V741.164M-52.5512 697.331H-13.8203M-52.5512 741.164H-13.8203M-13.8203 -91.6766V-47.8429M-13.8203 -91.6766H24.9106M-13.8203 -47.8429V-4.00915M-13.8203 -47.8429H24.9106M-13.8203 -4.00915V39.8246M-13.8203 -4.00915H24.9106M-13.8203 39.8246V83.6583M-13.8203 39.8246H24.9106M-13.8203 83.6583V127.492M-13.8203 83.6583H24.9106M-13.8203 127.492V171.326M-13.8203 127.492H24.9106M-13.8203 171.326V215.16M-13.8203 171.326H24.9106M-13.8203 215.16V258.993M-13.8203 215.16H24.9106M-13.8203 258.993V302.827M-13.8203 258.993H24.9106M-13.8203 302.827V346.661M-13.8203 302.827H24.9106M-13.8203 346.661V390.495M-13.8203 346.661H24.9106M-13.8203 390.495V434.328M-13.8203 390.495H24.9106M-13.8203 434.328V478.162M-13.8203 434.328H24.9106M-13.8203 478.162V521.996M-13.8203 478.162H24.9106M-13.8203 521.996V565.829M-13.8203 521.996H24.9106M-13.8203 565.829V609.663M-13.8203 565.829H24.9106M-13.8203 609.663V653.497M-13.8203 609.663H24.9106M-13.8203 653.497V697.331M-13.8203 653.497H24.9106M-13.8203 697.331V741.164M-13.8203 697.331H24.9106M-13.8203 741.164H24.9106M24.9106 -91.6766V-47.8429M24.9106 -91.6766H63.6414M24.9106 -47.8429V-4.00915M24.9106 -47.8429H63.6414M24.9106 -4.00915V39.8246M24.9106 -4.00915H63.6414M24.9106 39.8246V83.6583M24.9106 39.8246H63.6414M24.9106 83.6583V127.492M24.9106 83.6583H63.6414M24.9106 127.492V171.326M24.9106 127.492H63.6414M24.9106 171.326V215.16M24.9106 171.326H63.6414M24.9106 215.16V258.993M24.9106 215.16H63.6414M24.9106 258.993V302.827M24.9106 258.993H63.6414M24.9106 302.827V346.661M24.9106 302.827H63.6414M24.9106 346.661V390.495M24.9106 346.661H63.6414M24.9106 390.495V434.328M24.9106 390.495H63.6414M24.9106 434.328V478.162M24.9106 434.328H63.6414M24.9106 478.162V521.996M24.9106 478.162H63.6414M24.9106 521.996V565.829M24.9106 521.996H63.6414M24.9106 565.829V609.663M24.9106 565.829H63.6414M24.9106 609.663V653.497M24.9106 609.663H63.6414M24.9106 653.497V697.331M24.9106 653.497H63.6414M24.9106 697.331V741.164M24.9106 697.331H63.6414M24.9106 741.164H63.6414M63.6414 -91.6766V-47.8429M63.6414 -91.6766H102.372M63.6414 -47.8429V-4.00915M63.6414 -47.8429H102.372M63.6414 -4.00915V39.8246M63.6414 -4.00915H102.372M63.6414 39.8246V83.6583M63.6414 39.8246H102.372M63.6414 83.6583V127.492M63.6414 83.6583H102.372M63.6414 127.492V171.326M63.6414 127.492H102.372M63.6414 171.326V215.16M63.6414 171.326H102.372M63.6414 215.16V258.993M63.6414 215.16H102.372M63.6414 258.993V302.827M63.6414 258.993H102.372M63.6414 302.827V346.661M63.6414 302.827H102.372M63.6414 346.661V390.495M63.6414 346.661H102.372M63.6414 390.495V434.328M63.6414 390.495H102.372M63.6414 434.328V478.162M63.6414 434.328H102.372M63.6414 478.162V521.996M63.6414 478.162H102.372M63.6414 521.996V565.829M63.6414 521.996H102.372M63.6414 565.829V609.663M63.6414 565.829H102.372M63.6414 609.663V653.497M63.6414 609.663H102.372M63.6414 653.497V697.331M63.6414 653.497H102.372M63.6414 697.331V741.164M63.6414 697.331H102.372M63.6414 741.164H102.372M102.372 -91.6766V-47.8429M102.372 -91.6766H141.103M102.372 -47.8429V-4.00915M102.372 -47.8429H141.103M102.372 -4.00915V39.8246M102.372 -4.00915H141.103M102.372 39.8246V83.6583M102.372 39.8246H141.103M102.372 83.6583V127.492M102.372 83.6583H141.103M102.372 127.492V171.326M102.372 127.492H141.103M102.372 171.326V215.16M102.372 171.326H141.103M102.372 215.16V258.993M102.372 215.16H141.103M102.372 258.993V302.827M102.372 258.993H141.103M102.372 302.827V346.661M102.372 302.827H141.103M102.372 346.661V390.495M102.372 346.661H141.103M102.372 390.495V434.328M102.372 390.495H141.103M102.372 434.328V478.162M102.372 434.328H141.103M102.372 478.162V521.996M102.372 478.162H141.103M102.372 521.996V565.829M102.372 521.996H141.103M102.372 565.829V609.663M102.372 565.829H141.103M102.372 609.663V653.497M102.372 609.663H141.103M102.372 653.497V697.331M102.372 653.497H141.103M102.372 697.331V741.164M102.372 697.331H141.103M102.372 741.164H141.103M141.103 -91.6766V-47.8429M141.103 -91.6766H179.834M141.103 -47.8429V-4.00915M141.103 -47.8429H179.834M141.103 -4.00915V39.8246M141.103 -4.00915H179.834M141.103 39.8246V83.6583M141.103 39.8246H179.834M141.103 83.6583V127.492M141.103 83.6583H179.834M141.103 127.492V171.326M141.103 127.492H179.834M141.103 171.326V215.16M141.103 171.326H179.834M141.103 215.16V258.993M141.103 215.16H179.834M141.103 258.993V302.827M141.103 258.993H179.834M141.103 302.827V346.661M141.103 302.827H179.834M141.103 346.661V390.495M141.103 346.661H179.834M141.103 390.495V434.328M141.103 390.495H179.834M141.103 434.328V478.162M141.103 434.328H179.834M141.103 478.162V521.996M141.103 478.162H179.834M141.103 521.996V565.829M141.103 521.996H179.834M141.103 565.829V609.663M141.103 565.829H179.834M141.103 609.663V653.497M141.103 609.663H179.834M141.103 653.497V697.331M141.103 653.497H179.834M141.103 697.331V741.164M141.103 697.331H179.834M141.103 741.164H179.834M179.834 -91.6766V-47.8429M179.834 -91.6766H218.565M179.834 -47.8429V-4.00915M179.834 -47.8429H218.565M179.834 -4.00915V39.8246M179.834 -4.00915H218.565M179.834 39.8246V83.6583M179.834 39.8246H218.565M179.834 83.6583V127.492M179.834 83.6583H218.565M179.834 127.492V171.326M179.834 127.492H218.565M179.834 171.326V215.16M179.834 171.326H218.565M179.834 215.16V258.993M179.834 215.16H218.565M179.834 258.993V302.827M179.834 258.993H218.565M179.834 302.827V346.661M179.834 302.827H218.565M179.834 346.661V390.495M179.834 346.661H218.565M179.834 390.495V434.328M179.834 390.495H218.565M179.834 434.328V478.162M179.834 434.328H218.565M179.834 478.162V521.996M179.834 478.162H218.565M179.834 521.996V565.829M179.834 521.996H218.565M179.834 565.829V609.663M179.834 565.829H218.565M179.834 609.663V653.497M179.834 609.663H218.565M179.834 653.497V697.331M179.834 653.497H218.565M179.834 697.331V741.164M179.834 697.331H218.565M179.834 741.164H218.565M218.565 -91.6766V-47.8429M218.565 -91.6766H257.296M218.565 -47.8429V-4.00915M218.565 -47.8429H257.296M218.565 -4.00915V39.8246M218.565 -4.00915H257.296M218.565 39.8246V83.6583M218.565 39.8246H257.296M218.565 83.6583V127.492M218.565 83.6583H257.296M218.565 127.492V171.326M218.565 127.492H257.296M218.565 171.326V215.16M218.565 171.326H257.296M218.565 215.16V258.993M218.565 215.16H257.296M218.565 258.993V302.827M218.565 258.993H257.296M218.565 302.827V346.661M218.565 302.827H257.296M218.565 346.661V390.495M218.565 346.661H257.296M218.565 390.495V434.328M218.565 390.495H257.296M218.565 434.328V478.162M218.565 434.328H257.296M218.565 478.162V521.996M218.565 478.162H257.296M218.565 521.996V565.829M218.565 521.996H257.296M218.565 565.829V609.663M218.565 565.829H257.296M218.565 609.663V653.497M218.565 609.663H257.296M218.565 653.497V697.331M218.565 653.497H257.296M218.565 697.331V741.164M218.565 697.331H257.296M218.565 741.164H257.296M257.296 -91.6766V-47.8429M257.296 -91.6766H296.027M257.296 -47.8429V-4.00915M257.296 -47.8429H296.027M257.296 -4.00915V39.8246M257.296 -4.00915H296.027M257.296 39.8246V83.6583M257.296 39.8246H296.027M257.296 83.6583V127.492M257.296 83.6583H296.027M257.296 127.492V171.326M257.296 127.492H296.027M257.296 171.326V215.16M257.296 171.326H296.027M257.296 215.16V258.993M257.296 215.16H296.027M257.296 258.993V302.827M257.296 258.993H296.027M257.296 302.827V346.661M257.296 302.827H296.027M257.296 346.661V390.495M257.296 346.661H296.027M257.296 390.495V434.328M257.296 390.495H296.027M257.296 434.328V478.162M257.296 434.328H296.027M257.296 478.162V521.996M257.296 478.162H296.027M257.296 521.996V565.829M257.296 521.996H296.027M257.296 565.829V609.663M257.296 565.829H296.027M257.296 609.663V653.497M257.296 609.663H296.027M257.296 653.497V697.331M257.296 653.497H296.027M257.296 697.331V741.164M257.296 697.331H296.027M257.296 741.164H296.027M296.027 -91.6766V-47.8429M296.027 -91.6766H334.757M296.027 -47.8429V-4.00915M296.027 -47.8429H334.757M296.027 -4.00915V39.8246M296.027 -4.00915H334.757M296.027 39.8246V83.6583M296.027 39.8246H334.757M296.027 83.6583V127.492M296.027 83.6583H334.757M296.027 127.492V171.326M296.027 127.492H334.757M296.027 171.326V215.16M296.027 171.326H334.757M296.027 215.16V258.993M296.027 215.16H334.757M296.027 258.993V302.827M296.027 258.993H334.757M296.027 302.827V346.661M296.027 302.827H334.757M296.027 346.661V390.495M296.027 346.661H334.757M296.027 390.495V434.328M296.027 390.495H334.757M296.027 434.328V478.162M296.027 434.328H334.757M296.027 478.162V521.996M296.027 478.162H334.757M296.027 521.996V565.829M296.027 521.996H334.757M296.027 565.829V609.663M296.027 565.829H334.757M296.027 609.663V653.497M296.027 609.663H334.757M296.027 653.497V697.331M296.027 653.497H334.757M296.027 697.331V741.164M296.027 697.331H334.757M296.027 741.164H334.757M334.757 -91.6766V-47.8429M334.757 -91.6766H373.488M334.757 -47.8429V-4.00915M334.757 -47.8429H373.488M334.757 -4.00915V39.8246M334.757 -4.00915H373.488M334.757 39.8246V83.6583M334.757 39.8246H373.488M334.757 83.6583V127.492M334.757 83.6583H373.488M334.757 127.492V171.326M334.757 127.492H373.488M334.757 171.326V215.16M334.757 171.326H373.488M334.757 215.16V258.993M334.757 215.16H373.488M334.757 258.993V302.827M334.757 258.993H373.488M334.757 302.827V346.661M334.757 302.827H373.488M334.757 346.661V390.495M334.757 346.661H373.488M334.757 390.495V434.328M334.757 390.495H373.488M334.757 434.328V478.162M334.757 434.328H373.488M334.757 478.162V521.996M334.757 478.162H373.488M334.757 521.996V565.829M334.757 521.996H373.488M334.757 565.829V609.663M334.757 565.829H373.488M334.757 609.663V653.497M334.757 609.663H373.488M334.757 653.497V697.331M334.757 653.497H373.488M334.757 697.331V741.164M334.757 697.331H373.488M334.757 741.164H373.488M373.488 -91.6766V-47.8429M373.488 -91.6766H412.219M373.488 -47.8429V-4.00915M373.488 -47.8429H412.219M373.488 -4.00915V39.8246M373.488 -4.00915H412.219M373.488 39.8246V83.6583M373.488 39.8246H412.219M373.488 83.6583V127.492M373.488 83.6583H412.219M373.488 127.492V171.326M373.488 127.492H412.219M373.488 171.326V215.16M373.488 171.326H412.219M373.488 215.16V258.993M373.488 215.16H412.219M373.488 258.993V302.827M373.488 258.993H412.219M373.488 302.827V346.661M373.488 302.827H412.219M373.488 346.661V390.495M373.488 346.661H412.219M373.488 390.495V434.328M373.488 390.495H412.219M373.488 434.328V478.162M373.488 434.328H412.219M373.488 478.162V521.996M373.488 478.162H412.219M373.488 521.996V565.829M373.488 521.996H412.219M373.488 565.829V609.663M373.488 565.829H412.219M373.488 609.663V653.497M373.488 609.663H412.219M373.488 653.497V697.331M373.488 653.497H412.219M373.488 697.331V741.164M373.488 697.331H412.219M373.488 741.164H412.219M412.219 -91.6766V-47.8429M412.219 -91.6766H450.95M412.219 -47.8429V-4.00915M412.219 -47.8429H450.95M412.219 -4.00915V39.8246M412.219 -4.00915H450.95M412.219 39.8246V83.6583M412.219 39.8246H450.95M412.219 83.6583V127.492M412.219 83.6583H450.95M412.219 127.492V171.326M412.219 127.492H450.95M412.219 171.326V215.16M412.219 171.326H450.95M412.219 215.16V258.993M412.219 215.16H450.95M412.219 258.993V302.827M412.219 258.993H450.95M412.219 302.827V346.661M412.219 302.827H450.95M412.219 346.661V390.495M412.219 346.661H450.95M412.219 390.495V434.328M412.219 390.495H450.95M412.219 434.328V478.162M412.219 434.328H450.95M412.219 478.162V521.996M412.219 478.162H450.95M412.219 521.996V565.829M412.219 521.996H450.95M412.219 565.829V609.663M412.219 565.829H450.95M412.219 609.663V653.497M412.219 609.663H450.95M412.219 653.497V697.331M412.219 653.497H450.95M412.219 697.331V741.164M412.219 697.331H450.95M412.219 741.164H450.95M450.95 -91.6766V-47.8429M450.95 -91.6766H489.681M450.95 -47.8429V-4.00915M450.95 -47.8429H489.681M450.95 -4.00915V39.8246M450.95 -4.00915H489.681M450.95 39.8246V83.6583M450.95 39.8246H489.681M450.95 83.6583V127.492M450.95 83.6583H489.681M450.95 127.492V171.326M450.95 127.492H489.681M450.95 171.326V215.16M450.95 171.326H489.681M450.95 215.16V258.993M450.95 215.16H489.681M450.95 258.993V302.827M450.95 258.993H489.681M450.95 302.827V346.661M450.95 302.827H489.681M450.95 346.661V390.495M450.95 346.661H489.681M450.95 390.495V434.328M450.95 390.495H489.681M450.95 434.328V478.162M450.95 434.328H489.681M450.95 478.162V521.996M450.95 478.162H489.681M450.95 521.996V565.829M450.95 521.996H489.681M450.95 565.829V609.663M450.95 565.829H489.681M450.95 609.663V653.497M450.95 609.663H489.681M450.95 653.497V697.331M450.95 653.497H489.681M450.95 697.331V741.164M450.95 697.331H489.681M450.95 741.164H489.681M489.681 -91.6766V-47.8429M489.681 -91.6766H528.412M489.681 -47.8429V-4.00915M489.681 -47.8429H528.412M489.681 -4.00915V39.8246M489.681 -4.00915H528.412M489.681 39.8246V83.6583M489.681 39.8246H528.412M489.681 83.6583V127.492M489.681 83.6583H528.412M489.681 127.492V171.326M489.681 127.492H528.412M489.681 171.326V215.16M489.681 171.326H528.412M489.681 215.16V258.993M489.681 215.16H528.412M489.681 258.993V302.827M489.681 258.993H528.412M489.681 302.827V346.661M489.681 302.827H528.412M489.681 346.661V390.495M489.681 346.661H528.412M489.681 390.495V434.328M489.681 390.495H528.412M489.681 434.328V478.162M489.681 434.328H528.412M489.681 478.162V521.996M489.681 478.162H528.412M489.681 521.996V565.829M489.681 521.996H528.412M489.681 565.829V609.663M489.681 565.829H528.412M489.681 609.663V653.497M489.681 609.663H528.412M489.681 653.497V697.331M489.681 653.497H528.412M489.681 697.331V741.164M489.681 697.331H528.412M489.681 741.164H528.412M528.412 -91.6766V-47.8429M528.412 -91.6766H567.143M528.412 -47.8429V-4.00915M528.412 -47.8429H567.143M528.412 -4.00915V39.8246M528.412 -4.00915H567.143M528.412 39.8246V83.6583M528.412 39.8246H567.143M528.412 83.6583V127.492M528.412 83.6583H567.143M528.412 127.492V171.326M528.412 127.492H567.143M528.412 171.326V215.16M528.412 171.326H567.143M528.412 215.16V258.993M528.412 215.16H567.143M528.412 258.993V302.827M528.412 258.993H567.143M528.412 302.827V346.661M528.412 302.827H567.143M528.412 346.661V390.495M528.412 346.661H567.143M528.412 390.495V434.328M528.412 390.495H567.143M528.412 434.328V478.162M528.412 434.328H567.143M528.412 478.162V521.996M528.412 478.162H567.143M528.412 521.996V565.829M528.412 521.996H567.143M528.412 565.829V609.663M528.412 565.829H567.143M528.412 609.663V653.497M528.412 609.663H567.143M528.412 653.497V697.331M528.412 653.497H567.143M528.412 697.331V741.164M528.412 697.331H567.143M528.412 741.164H567.143M567.143 -91.6766V-47.8429M567.143 -91.6766H605.873M567.143 -47.8429V-4.00915M567.143 -47.8429H605.873M567.143 -4.00915V39.8246M567.143 -4.00915H605.873M567.143 39.8246V83.6583M567.143 39.8246H605.873M567.143 83.6583V127.492M567.143 83.6583H605.873M567.143 127.492V171.326M567.143 127.492H605.873M567.143 171.326V215.16M567.143 171.326H605.873M567.143 215.16V258.993M567.143 215.16H605.873M567.143 258.993V302.827M567.143 258.993H605.873M567.143 302.827V346.661M567.143 302.827H605.873M567.143 346.661V390.495M567.143 346.661H605.873M567.143 390.495V434.328M567.143 390.495H605.873M567.143 434.328V478.162M567.143 434.328H605.873M567.143 478.162V521.996M567.143 478.162H605.873M567.143 521.996V565.829M567.143 521.996H605.873M567.143 565.829V609.663M567.143 565.829H605.873M567.143 609.663V653.497M567.143 609.663H605.873M567.143 653.497V697.331M567.143 653.497H605.873M567.143 697.331V741.164M567.143 697.331H605.873M567.143 741.164H605.873M605.873 -91.6766V-47.8429M605.873 -91.6766H644.604M605.873 -47.8429V-4.00915M605.873 -47.8429H644.604M605.873 -4.00915V39.8246M605.873 -4.00915H644.604M605.873 39.8246V83.6583M605.873 39.8246H644.604M605.873 83.6583V127.492M605.873 83.6583H644.604M605.873 127.492V171.326M605.873 127.492H644.604M605.873 171.326V215.16M605.873 171.326H644.604M605.873 215.16V258.993M605.873 215.16H644.604M605.873 258.993V302.827M605.873 258.993H644.604M605.873 302.827V346.661M605.873 302.827H644.604M605.873 346.661V390.495M605.873 346.661H644.604M605.873 390.495V434.328M605.873 390.495H644.604M605.873 434.328V478.162M605.873 434.328H644.604M605.873 478.162V521.996M605.873 478.162H644.604M605.873 521.996V565.829M605.873 521.996H644.604M605.873 565.829V609.663M605.873 565.829H644.604M605.873 609.663V653.497M605.873 609.663H644.604M605.873 653.497V697.331M605.873 653.497H644.604M605.873 697.331V741.164M605.873 697.331H644.604M605.873 741.164H644.604M644.604 -91.6766V-47.8429M644.604 -91.6766H683.335M644.604 -47.8429V-4.00915M644.604 -47.8429H683.335M644.604 -4.00915V39.8246M644.604 -4.00915H683.335M644.604 39.8246V83.6583M644.604 39.8246H683.335M644.604 83.6583V127.492M644.604 83.6583H683.335M644.604 127.492V171.326M644.604 127.492H683.335M644.604 171.326V215.16M644.604 171.326H683.335M644.604 215.16V258.993M644.604 215.16H683.335M644.604 258.993V302.827M644.604 258.993H683.335M644.604 302.827V346.661M644.604 302.827H683.335M644.604 346.661V390.495M644.604 346.661H683.335M644.604 390.495V434.328M644.604 390.495H683.335M644.604 434.328V478.162M644.604 434.328H683.335M644.604 478.162V521.996M644.604 478.162H683.335M644.604 521.996V565.829M644.604 521.996H683.335M644.604 565.829V609.663M644.604 565.829H683.335M644.604 609.663V653.497M644.604 609.663H683.335M644.604 653.497V697.331M644.604 653.497H683.335M644.604 697.331V741.164M644.604 697.331H683.335M644.604 741.164H683.335M683.335 -91.6766V-47.8429M683.335 -91.6766H722.066M683.335 -47.8429V-4.00915M683.335 -47.8429H722.066M683.335 -4.00915V39.8246M683.335 -4.00915H722.066M683.335 39.8246V83.6583M683.335 39.8246H722.066M683.335 83.6583V127.492M683.335 83.6583H722.066M683.335 127.492V171.326M683.335 127.492H722.066M683.335 171.326V215.16M683.335 171.326H722.066M683.335 215.16V258.993M683.335 215.16H722.066M683.335 258.993V302.827M683.335 258.993H722.066M683.335 302.827V346.661M683.335 302.827H722.066M683.335 346.661V390.495M683.335 346.661H722.066M683.335 390.495V434.328M683.335 390.495H722.066M683.335 434.328V478.162M683.335 434.328H722.066M683.335 478.162V521.996M683.335 478.162H722.066M683.335 521.996V565.829M683.335 521.996H722.066M683.335 565.829V609.663M683.335 565.829H722.066M683.335 609.663V653.497M683.335 609.663H722.066M683.335 653.497V697.331M683.335 653.497H722.066M683.335 697.331V741.164M683.335 697.331H722.066M683.335 741.164H722.066M722.066 -91.6766V-47.8429M722.066 -91.6766H760.797M722.066 -47.8429V-4.00915M722.066 -47.8429H760.797M722.066 -4.00915V39.8246M722.066 -4.00915H760.797M722.066 39.8246V83.6583M722.066 39.8246H760.797M722.066 83.6583V127.492M722.066 83.6583H760.797M722.066 127.492V171.326M722.066 127.492H760.797M722.066 171.326V215.16M722.066 171.326H760.797M722.066 215.16V258.993M722.066 215.16H760.797M722.066 258.993V302.827M722.066 258.993H760.797M722.066 302.827V346.661M722.066 302.827H760.797M722.066 346.661V390.495M722.066 346.661H760.797M722.066 390.495V434.328M722.066 390.495H760.797M722.066 434.328V478.162M722.066 434.328H760.797M722.066 478.162V521.996M722.066 478.162H760.797M722.066 521.996V565.829M722.066 521.996H760.797M722.066 565.829V609.663M722.066 565.829H760.797M722.066 609.663V653.497M722.066 609.663H760.797M722.066 653.497V697.331M722.066 653.497H760.797M722.066 697.331V741.164M722.066 697.331H760.797M722.066 741.164H760.797M760.797 -91.6766V-47.8429M760.797 -91.6766H799.528M760.797 -47.8429V-4.00915M760.797 -47.8429H799.528M760.797 -4.00915V39.8246M760.797 -4.00915H799.528M760.797 39.8246V83.6583M760.797 39.8246H799.528M760.797 83.6583V127.492M760.797 83.6583H799.528M760.797 127.492V171.326M760.797 127.492H799.528M760.797 171.326V215.16M760.797 171.326H799.528M760.797 215.16V258.993M760.797 215.16H799.528M760.797 258.993V302.827M760.797 258.993H799.528M760.797 302.827V346.661M760.797 302.827H799.528M760.797 346.661V390.495M760.797 346.661H799.528M760.797 390.495V434.328M760.797 390.495H799.528M760.797 434.328V478.162M760.797 434.328H799.528M760.797 478.162V521.996M760.797 478.162H799.528M760.797 521.996V565.829M760.797 521.996H799.528M760.797 565.829V609.663M760.797 565.829H799.528M760.797 609.663V653.497M760.797 609.663H799.528M760.797 653.497V697.331M760.797 653.497H799.528M760.797 697.331V741.164M760.797 697.331H799.528M760.797 741.164H799.528M799.528 -91.6766V-47.8429M799.528 -91.6766H838.259M799.528 -47.8429V-4.00915M799.528 -47.8429H838.259M799.528 -4.00915V39.8246M799.528 -4.00915H838.259M799.528 39.8246V83.6583M799.528 39.8246H838.259M799.528 83.6583V127.492M799.528 83.6583H838.259M799.528 127.492V171.326M799.528 127.492H838.259M799.528 171.326V215.16M799.528 171.326H838.259M799.528 215.16V258.993M799.528 215.16H838.259M799.528 258.993V302.827M799.528 258.993H838.259M799.528 302.827V346.661M799.528 302.827H838.259M799.528 346.661V390.495M799.528 346.661H838.259M799.528 390.495V434.328M799.528 390.495H838.259M799.528 434.328V478.162M799.528 434.328H838.259M799.528 478.162V521.996M799.528 478.162H838.259M799.528 521.996V565.829M799.528 521.996H838.259M799.528 565.829V609.663M799.528 565.829H838.259M799.528 609.663V653.497M799.528 609.663H838.259M799.528 653.497V697.331M799.528 653.497H838.259M799.528 697.331V741.164M799.528 697.331H838.259M799.528 741.164H838.259M838.259 -91.6766V-47.8429M838.259 -91.6766H876.99M838.259 -47.8429V-4.00915M838.259 -47.8429H876.99M838.259 -4.00915V39.8246M838.259 -4.00915H876.99M838.259 39.8246V83.6583M838.259 39.8246H876.99M838.259 83.6583V127.492M838.259 83.6583H876.99M838.259 127.492V171.326M838.259 127.492H876.99M838.259 171.326V215.16M838.259 171.326H876.99M838.259 215.16V258.993M838.259 215.16H876.99M838.259 258.993V302.827M838.259 258.993H876.99M838.259 302.827V346.661M838.259 302.827H876.99M838.259 346.661V390.495M838.259 346.661H876.99M838.259 390.495V434.328M838.259 390.495H876.99M838.259 434.328V478.162M838.259 434.328H876.99M838.259 478.162V521.996M838.259 478.162H876.99M838.259 521.996V565.829M838.259 521.996H876.99M838.259 565.829V609.663M838.259 565.829H876.99M838.259 609.663V653.497M838.259 609.663H876.99M838.259 653.497V697.331M838.259 653.497H876.99M838.259 697.331V741.164M838.259 697.331H876.99M838.259 741.164H876.99M876.99 -91.6766V-47.8429M876.99 -91.6766H915.72M876.99 -47.8429V-4.00915M876.99 -47.8429H915.72M876.99 -4.00915V39.8246M876.99 -4.00915H915.72M876.99 39.8246V83.6583M876.99 39.8246H915.72M876.99 83.6583V127.492M876.99 83.6583H915.72M876.99 127.492V171.326M876.99 127.492H915.72M876.99 171.326V215.16M876.99 171.326H915.72M876.99 215.16V258.993M876.99 215.16H915.72M876.99 258.993V302.827M876.99 258.993H915.72M876.99 302.827V346.661M876.99 302.827H915.72M876.99 346.661V390.495M876.99 346.661H915.72M876.99 390.495V434.328M876.99 390.495H915.72M876.99 434.328V478.162M876.99 434.328H915.72M876.99 478.162V521.996M876.99 478.162H915.72M876.99 521.996V565.829M876.99 521.996H915.72M876.99 565.829V609.663M876.99 565.829H915.72M876.99 609.663V653.497M876.99 609.663H915.72M876.99 653.497V697.331M876.99 653.497H915.72M876.99 697.331V741.164M876.99 697.331H915.72M876.99 741.164H915.72M915.72 -91.6766V-47.8429M915.72 -91.6766H954.451M915.72 -47.8429V-4.00915M915.72 -47.8429H954.451M915.72 -4.00915V39.8246M915.72 -4.00915H954.451M915.72 39.8246V83.6583M915.72 39.8246H954.451M915.72 83.6583V127.492M915.72 83.6583H954.451M915.72 127.492V171.326M915.72 127.492H954.451M915.72 171.326V215.16M915.72 171.326H954.451M915.72 215.16V258.993M915.72 215.16H954.451M915.72 258.993V302.827M915.72 258.993H954.451M915.72 302.827V346.661M915.72 302.827H954.451M915.72 346.661V390.495M915.72 346.661H954.451M915.72 390.495V434.328M915.72 390.495H954.451M915.72 434.328V478.162M915.72 434.328H954.451M915.72 478.162V521.996M915.72 478.162H954.451M915.72 521.996V565.829M915.72 521.996H954.451M915.72 565.829V609.663M915.72 565.829H954.451M915.72 609.663V653.497M915.72 609.663H954.451M915.72 653.497V697.331M915.72 653.497H954.451M915.72 697.331V741.164M915.72 697.331H954.451M915.72 741.164H954.451M954.451 -91.6766V-47.8429M954.451 -91.6766H993.182M954.451 -47.8429V-4.00915M954.451 -47.8429H993.182M954.451 -4.00915V39.8246M954.451 -4.00915H993.182M954.451 39.8246V83.6583M954.451 39.8246H993.182M954.451 83.6583V127.492M954.451 83.6583H993.182M954.451 127.492V171.326M954.451 127.492H993.182M954.451 171.326V215.16M954.451 171.326H993.182M954.451 215.16V258.993M954.451 215.16H993.182M954.451 258.993V302.827M954.451 258.993H993.182M954.451 302.827V346.661M954.451 302.827H993.182M954.451 346.661V390.495M954.451 346.661H993.182M954.451 390.495V434.328M954.451 390.495H993.182M954.451 434.328V478.162M954.451 434.328H993.182M954.451 478.162V521.996M954.451 478.162H993.182M954.451 521.996V565.829M954.451 521.996H993.182M954.451 565.829V609.663M954.451 565.829H993.182M954.451 609.663V653.497M954.451 609.663H993.182M954.451 653.497V697.331M954.451 653.497H993.182M954.451 697.331V741.164M954.451 697.331H993.182M954.451 741.164H993.182M993.182 -91.6766V-47.8429M993.182 -91.6766H1031.91M993.182 -47.8429V-4.00915M993.182 -47.8429H1031.91M993.182 -4.00915V39.8246M993.182 -4.00915H1031.91M993.182 39.8246V83.6583M993.182 39.8246H1031.91M993.182 83.6583V127.492M993.182 83.6583H1031.91M993.182 127.492V171.326M993.182 127.492H1031.91M993.182 171.326V215.16M993.182 171.326H1031.91M993.182 215.16V258.993M993.182 215.16H1031.91M993.182 258.993V302.827M993.182 258.993H1031.91M993.182 302.827V346.661M993.182 302.827H1031.91M993.182 346.661V390.495M993.182 346.661H1031.91M993.182 390.495V434.328M993.182 390.495H1031.91M993.182 434.328V478.162M993.182 434.328H1031.91M993.182 478.162V521.996M993.182 478.162H1031.91M993.182 521.996V565.829M993.182 521.996H1031.91M993.182 565.829V609.663M993.182 565.829H1031.91M993.182 609.663V653.497M993.182 609.663H1031.91M993.182 653.497V697.331M993.182 653.497H1031.91M993.182 697.331V741.164M993.182 697.331H1031.91M993.182 741.164H1031.91M1031.91 -91.6766V-47.8429M1031.91 -91.6766H1070.64M1031.91 -47.8429V-4.00915M1031.91 -47.8429H1070.64M1031.91 -4.00915V39.8246M1031.91 -4.00915H1070.64M1031.91 39.8246V83.6583M1031.91 39.8246H1070.64M1031.91 83.6583V127.492M1031.91 83.6583H1070.64M1031.91 127.492V171.326M1031.91 127.492H1070.64M1031.91 171.326V215.16M1031.91 171.326H1070.64M1031.91 215.16V258.993M1031.91 215.16H1070.64M1031.91 258.993V302.827M1031.91 258.993H1070.64M1031.91 302.827V346.661M1031.91 302.827H1070.64M1031.91 346.661V390.495M1031.91 346.661H1070.64M1031.91 390.495V434.328M1031.91 390.495H1070.64M1031.91 434.328V478.162M1031.91 434.328H1070.64M1031.91 478.162V521.996M1031.91 478.162H1070.64M1031.91 521.996V565.829M1031.91 521.996H1070.64M1031.91 565.829V609.663M1031.91 565.829H1070.64M1031.91 609.663V653.497M1031.91 609.663H1070.64M1031.91 653.497V697.331M1031.91 653.497H1070.64M1031.91 697.331V741.164M1031.91 697.331H1070.64M1031.91 741.164H1070.64M1070.64 -91.6766V-47.8429M1070.64 -91.6766H1109.37M1070.64 -47.8429V-4.00915M1070.64 -47.8429H1109.37M1070.64 -4.00915V39.8246M1070.64 -4.00915H1109.37M1070.64 39.8246V83.6583M1070.64 39.8246H1109.37M1070.64 83.6583V127.492M1070.64 83.6583H1109.37M1070.64 127.492V171.326M1070.64 127.492H1109.37M1070.64 171.326V215.16M1070.64 171.326H1109.37M1070.64 215.16V258.993M1070.64 215.16H1109.37M1070.64 258.993V302.827M1070.64 258.993H1109.37M1070.64 302.827V346.661M1070.64 302.827H1109.37M1070.64 346.661V390.495M1070.64 346.661H1109.37M1070.64 390.495V434.328M1070.64 390.495H1109.37M1070.64 434.328V478.162M1070.64 434.328H1109.37M1070.64 478.162V521.996M1070.64 478.162H1109.37M1070.64 521.996V565.829M1070.64 521.996H1109.37M1070.64 565.829V609.663M1070.64 565.829H1109.37M1070.64 609.663V653.497M1070.64 609.663H1109.37M1070.64 653.497V697.331M1070.64 653.497H1109.37M1070.64 697.331V741.164M1070.64 697.331H1109.37M1070.64 741.164H1109.37M1109.37 -91.6766V-47.8429M1109.37 -91.6766H1148.11M1109.37 -47.8429V-4.00915M1109.37 -47.8429H1148.11M1109.37 -4.00915V39.8246M1109.37 -4.00915H1148.11M1109.37 39.8246V83.6583M1109.37 39.8246H1148.11M1109.37 83.6583V127.492M1109.37 83.6583H1148.11M1109.37 127.492V171.326M1109.37 127.492H1148.11M1109.37 171.326V215.16M1109.37 171.326H1148.11M1109.37 215.16V258.993M1109.37 215.16H1148.11M1109.37 258.993V302.827M1109.37 258.993H1148.11M1109.37 302.827V346.661M1109.37 302.827H1148.11M1109.37 346.661V390.495M1109.37 346.661H1148.11M1109.37 390.495V434.328M1109.37 390.495H1148.11M1109.37 434.328V478.162M1109.37 434.328H1148.11M1109.37 478.162V521.996M1109.37 478.162H1148.11M1109.37 521.996V565.829M1109.37 521.996H1148.11M1109.37 565.829V609.663M1109.37 565.829H1148.11M1109.37 609.663V653.497M1109.37 609.663H1148.11M1109.37 653.497V697.331M1109.37 653.497H1148.11M1109.37 697.331V741.164M1109.37 697.331H1148.11M1109.37 741.164H1148.11M1148.11 -91.6766V-47.8429M1148.11 -91.6766H1186.84M1148.11 -47.8429V-4.00915M1148.11 -47.8429H1186.84M1148.11 -4.00915V39.8246M1148.11 -4.00915H1186.84M1148.11 39.8246V83.6583M1148.11 39.8246H1186.84M1148.11 83.6583V127.492M1148.11 83.6583H1186.84M1148.11 127.492V171.326M1148.11 127.492H1186.84M1148.11 171.326V215.16M1148.11 171.326H1186.84M1148.11 215.16V258.993M1148.11 215.16H1186.84M1148.11 258.993V302.827M1148.11 258.993H1186.84M1148.11 302.827V346.661M1148.11 302.827H1186.84M1148.11 346.661V390.495M1148.11 346.661H1186.84M1148.11 390.495V434.328M1148.11 390.495H1186.84M1148.11 434.328V478.162M1148.11 434.328H1186.84M1148.11 478.162V521.996M1148.11 478.162H1186.84M1148.11 521.996V565.829M1148.11 521.996H1186.84M1148.11 565.829V609.663M1148.11 565.829H1186.84M1148.11 609.663V653.497M1148.11 609.663H1186.84M1148.11 653.497V697.331M1148.11 653.497H1186.84M1148.11 697.331V741.164M1148.11 697.331H1186.84M1148.11 741.164H1186.84M1186.84 -91.6766V-47.8429M1186.84 -91.6766H1225.57M1186.84 -47.8429V-4.00915M1186.84 -47.8429H1225.57M1186.84 -4.00915V39.8246M1186.84 -4.00915H1225.57M1186.84 39.8246V83.6583M1186.84 39.8246H1225.57M1186.84 83.6583V127.492M1186.84 83.6583H1225.57M1186.84 127.492V171.326M1186.84 127.492H1225.57M1186.84 171.326V215.16M1186.84 171.326H1225.57M1186.84 215.16V258.993M1186.84 215.16H1225.57M1186.84 258.993V302.827M1186.84 258.993H1225.57M1186.84 302.827V346.661M1186.84 302.827H1225.57M1186.84 346.661V390.495M1186.84 346.661H1225.57M1186.84 390.495V434.328M1186.84 390.495H1225.57M1186.84 434.328V478.162M1186.84 434.328H1225.57M1186.84 478.162V521.996M1186.84 478.162H1225.57M1186.84 521.996V565.829M1186.84 521.996H1225.57M1186.84 565.829V609.663M1186.84 565.829H1225.57M1186.84 609.663V653.497M1186.84 609.663H1225.57M1186.84 653.497V697.331M1186.84 653.497H1225.57M1186.84 697.331V741.164M1186.84 697.331H1225.57M1186.84 741.164H1225.57M1225.57 -91.6766V-47.8429M1225.57 -91.6766H1264.3M1225.57 -47.8429V-4.00915M1225.57 -47.8429H1264.3M1225.57 -4.00915V39.8246M1225.57 -4.00915H1264.3M1225.57 39.8246V83.6583M1225.57 39.8246H1264.3M1225.57 83.6583V127.492M1225.57 83.6583H1264.3M1225.57 127.492V171.326M1225.57 127.492H1264.3M1225.57 171.326V215.16M1225.57 171.326H1264.3M1225.57 215.16V258.993M1225.57 215.16H1264.3M1225.57 258.993V302.827M1225.57 258.993H1264.3M1225.57 302.827V346.661M1225.57 302.827H1264.3M1225.57 346.661V390.495M1225.57 346.661H1264.3M1225.57 390.495V434.328M1225.57 390.495H1264.3M1225.57 434.328V478.162M1225.57 434.328H1264.3M1225.57 478.162V521.996M1225.57 478.162H1264.3M1225.57 521.996V565.829M1225.57 521.996H1264.3M1225.57 565.829V609.663M1225.57 565.829H1264.3M1225.57 609.663V653.497M1225.57 609.663H1264.3M1225.57 653.497V697.331M1225.57 653.497H1264.3M1225.57 697.331V741.164M1225.57 697.331H1264.3M1225.57 741.164H1264.3M1264.3 -91.6766V-47.8429M1264.3 -91.6766H1303.03M1264.3 -47.8429V-4.00915M1264.3 -47.8429H1303.03M1264.3 -4.00915V39.8246M1264.3 -4.00915H1303.03M1264.3 39.8246V83.6583M1264.3 39.8246H1303.03M1264.3 83.6583V127.492M1264.3 83.6583H1303.03M1264.3 127.492V171.326M1264.3 127.492H1303.03M1264.3 171.326V215.16M1264.3 171.326H1303.03M1264.3 215.16V258.993M1264.3 215.16H1303.03M1264.3 258.993V302.827M1264.3 258.993H1303.03M1264.3 302.827V346.661M1264.3 302.827H1303.03M1264.3 346.661V390.495M1264.3 346.661H1303.03M1264.3 390.495V434.328M1264.3 390.495H1303.03M1264.3 434.328V478.162M1264.3 434.328H1303.03M1264.3 478.162V521.996M1264.3 478.162H1303.03M1264.3 521.996V565.829M1264.3 521.996H1303.03M1264.3 565.829V609.663M1264.3 565.829H1303.03M1264.3 609.663V653.497M1264.3 609.663H1303.03M1264.3 653.497V697.331M1264.3 653.497H1303.03M1264.3 697.331V741.164M1264.3 697.331H1303.03M1264.3 741.164H1303.03M1303.03 -91.6766V-47.8429M1303.03 -91.6766H1341.76M1303.03 -47.8429V-4.00915M1303.03 -47.8429H1341.76M1303.03 -4.00915V39.8246M1303.03 -4.00915H1341.76M1303.03 39.8246V83.6583M1303.03 39.8246H1341.76M1303.03 83.6583V127.492M1303.03 83.6583H1341.76M1303.03 127.492V171.326M1303.03 127.492H1341.76M1303.03 171.326V215.16M1303.03 171.326H1341.76M1303.03 215.16V258.993M1303.03 215.16H1341.76M1303.03 258.993V302.827M1303.03 258.993H1341.76M1303.03 302.827V346.661M1303.03 302.827H1341.76M1303.03 346.661V390.495M1303.03 346.661H1341.76M1303.03 390.495V434.328M1303.03 390.495H1341.76M1303.03 434.328V478.162M1303.03 434.328H1341.76M1303.03 478.162V521.996M1303.03 478.162H1341.76M1303.03 521.996V565.829M1303.03 521.996H1341.76M1303.03 565.829V609.663M1303.03 565.829H1341.76M1303.03 609.663V653.497M1303.03 609.663H1341.76M1303.03 653.497V697.331M1303.03 653.497H1341.76M1303.03 697.331V741.164M1303.03 697.331H1341.76M1303.03 741.164H1341.76M1341.76 -91.6766V-47.8429M1341.76 -91.6766H1380.49M1341.76 -47.8429V-4.00915M1341.76 -47.8429H1380.49M1341.76 -4.00915V39.8246M1341.76 -4.00915H1380.49M1341.76 39.8246V83.6583M1341.76 39.8246H1380.49M1341.76 83.6583V127.492M1341.76 83.6583H1380.49M1341.76 127.492V171.326M1341.76 127.492H1380.49M1341.76 171.326V215.16M1341.76 171.326H1380.49M1341.76 215.16V258.993M1341.76 215.16H1380.49M1341.76 258.993V302.827M1341.76 258.993H1380.49M1341.76 302.827V346.661M1341.76 302.827H1380.49M1341.76 346.661V390.495M1341.76 346.661H1380.49M1341.76 390.495V434.328M1341.76 390.495H1380.49M1341.76 434.328V478.162M1341.76 434.328H1380.49M1341.76 478.162V521.996M1341.76 478.162H1380.49M1341.76 521.996V565.829M1341.76 521.996H1380.49M1341.76 565.829V609.663M1341.76 565.829H1380.49M1341.76 609.663V653.497M1341.76 609.663H1380.49M1341.76 653.497V697.331M1341.76 653.497H1380.49M1341.76 697.331V741.164M1341.76 697.331H1380.49M1341.76 741.164H1380.49M1380.49 -91.6766V-47.8429M1380.49 -91.6766H1419.22M1380.49 -47.8429V-4.00915M1380.49 -47.8429H1419.22M1380.49 -4.00915V39.8246M1380.49 -4.00915H1419.22M1380.49 39.8246V83.6583M1380.49 39.8246H1419.22M1380.49 83.6583V127.492M1380.49 83.6583H1419.22M1380.49 127.492V171.326M1380.49 127.492H1419.22M1380.49 171.326V215.16M1380.49 171.326H1419.22M1380.49 215.16V258.993M1380.49 215.16H1419.22M1380.49 258.993V302.827M1380.49 258.993H1419.22M1380.49 302.827V346.661M1380.49 302.827H1419.22M1380.49 346.661V390.495M1380.49 346.661H1419.22M1380.49 390.495V434.328M1380.49 390.495H1419.22M1380.49 434.328V478.162M1380.49 434.328H1419.22M1380.49 478.162V521.996M1380.49 478.162H1419.22M1380.49 521.996V565.829M1380.49 521.996H1419.22M1380.49 565.829V609.663M1380.49 565.829H1419.22M1380.49 609.663V653.497M1380.49 609.663H1419.22M1380.49 653.497V697.331M1380.49 653.497H1419.22M1380.49 697.331V741.164M1380.49 697.331H1419.22M1380.49 741.164H1419.22M1419.22 -91.6766V-47.8429M1419.22 -91.6766H1457.95M1419.22 -47.8429V-4.00915M1419.22 -47.8429H1457.95M1419.22 -4.00915V39.8246M1419.22 -4.00915H1457.95M1419.22 39.8246V83.6583M1419.22 39.8246H1457.95M1419.22 83.6583V127.492M1419.22 83.6583H1457.95M1419.22 127.492V171.326M1419.22 127.492H1457.95M1419.22 171.326V215.16M1419.22 171.326H1457.95M1419.22 215.16V258.993M1419.22 215.16H1457.95M1419.22 258.993V302.827M1419.22 258.993H1457.95M1419.22 302.827V346.661M1419.22 302.827H1457.95M1419.22 346.661V390.495M1419.22 346.661H1457.95M1419.22 390.495V434.328M1419.22 390.495H1457.95M1419.22 434.328V478.162M1419.22 434.328H1457.95M1419.22 478.162V521.996M1419.22 478.162H1457.95M1419.22 521.996V565.829M1419.22 521.996H1457.95M1419.22 565.829V609.663M1419.22 565.829H1457.95M1419.22 609.663V653.497M1419.22 609.663H1457.95M1419.22 653.497V697.331M1419.22 653.497H1457.95M1419.22 697.331V741.164M1419.22 697.331H1457.95M1419.22 741.164H1457.95M1457.95 -91.6766V-47.8429M1457.95 -91.6766H1496.68V-47.8429M1457.95 -47.8429V-4.00915M1457.95 -47.8429H1496.68M1457.95 -4.00915V39.8246M1457.95 -4.00915H1496.68M1457.95 39.8246V83.6583M1457.95 39.8246H1496.68M1457.95 83.6583V127.492M1457.95 83.6583H1496.68M1457.95 127.492V171.326M1457.95 127.492H1496.68M1457.95 171.326V215.16M1457.95 171.326H1496.68M1457.95 215.16V258.993M1457.95 215.16H1496.68M1457.95 258.993V302.827M1457.95 258.993H1496.68M1457.95 302.827V346.661M1457.95 302.827H1496.68M1457.95 346.661V390.495M1457.95 346.661H1496.68M1457.95 390.495V434.328M1457.95 390.495H1496.68M1457.95 434.328V478.162M1457.95 434.328H1496.68M1457.95 478.162V521.996M1457.95 478.162H1496.68M1457.95 521.996V565.829M1457.95 521.996H1496.68M1457.95 565.829V609.663M1457.95 565.829H1496.68M1457.95 609.663V653.497M1457.95 609.663H1496.68M1457.95 653.497V697.331M1457.95 653.497H1496.68M1457.95 697.331V741.164M1457.95 697.331H1496.68M1457.95 741.164H1496.68V697.331M1496.68 -47.8429V-4.00915M1496.68 -4.00915V39.8246M1496.68 39.8246V83.6583M1496.68 83.6583V127.492M1496.68 127.492V171.326M1496.68 171.326V215.16M1496.68 215.16V258.993M1496.68 258.993V302.827M1496.68 302.827V346.661M1496.68 346.661V390.495M1496.68 390.495V434.328M1496.68 434.328V478.162M1496.68 478.162V521.996M1496.68 521.996V565.829M1496.68 565.829V609.663M1496.68 609.663V653.497M1496.68 653.497V697.331" stroke="url(#paint37_radial_2179_8)" stroke-width="0.968272"/>
</g>
</g>
<defs>
<filter id="filter0_f_2179_8" x="443.403" y="-762.731" width="904.405" height="1239.13" filterUnits="userSpaceOnUse" color-interpolation-filters="sRGB">
<feFlood flood-opacity="0" result="BackgroundImageFix"/>
<feBlend mode="normal" in="SourceGraphic" in2="BackgroundImageFix" result="shape"/>
<feGaussianBlur stdDeviation="42.7016" result="effect1_foregroundBlur_2179_8"/>
</filter>
<filter id="filter1_f_2179_8" x="590.327" y="-675.11" width="631.478" height="983.223" filterUnits="userSpaceOnUse" color-interpolation-filters="sRGB">
<feFlood flood-opacity="0" result="BackgroundImageFix"/>
<feBlend mode="normal" in="SourceGraphic" in2="BackgroundImageFix" result="shape"/>
<feGaussianBlur stdDeviation="36.7709" result="effect1_foregroundBlur_2179_8"/>
</filter>
<filter id="filter2_f_2179_8" x="494.361" y="-750.87" width="631.478" height="983.223" filterUnits="userSpaceOnUse" color-interpolation-filters="sRGB">
<feFlood flood-opacity="0" result="BackgroundImageFix"/>
<feBlend mode="normal" in="SourceGraphic" in2="BackgroundImageFix" result="shape"/>
<feGaussianBlur stdDeviation="36.7709" result="effect1_foregroundBlur_2179_8"/>
</filter>
<filter id="filter3_f_2179_8" x="704.468" y="-725.316" width="631.478" height="983.223" filterUnits="userSpaceOnUse" color-interpolation-filters="sRGB">
<feFlood flood-opacity="0" result="BackgroundImageFix"/>
<feBlend mode="normal" in="SourceGraphic" in2="BackgroundImageFix" result="shape"/>
<feGaussianBlur stdDeviation="36.7709" result="effect1_foregroundBlur_2179_8"/>
</filter>
<filter id="filter4_f_2179_8" x="554.783" y="-635.038" width="568.071" height="919.816" filterUnits="userSpaceOnUse" color-interpolation-filters="sRGB">
<feFlood flood-opacity="0" result="BackgroundImageFix"/>
<feBlend mode="normal" in="SourceGraphic" in2="BackgroundImageFix" result="shape"/>
<feGaussianBlur stdDeviation="20.919" result="effect1_foregroundBlur_2179_8"/>
</filter>
<filter id="filter5_f_2179_8" x="590.327" y="-675.11" width="631.478" height="983.223" filterUnits="userSpaceOnUse" color-interpolation-filters="sRGB">
<feFlood flood-opacity="0" result="BackgroundImageFix"/>
<feBlend mode="normal" in="SourceGraphic" in2="BackgroundImageFix" result="shape"/>
<feGaussianBlur stdDeviation="36.7709" result="effect1_foregroundBlur_2179_8"/>
</filter>
<filter id="filter6_f_2179_8" x="494.361" y="-750.87" width="631.478" height="983.223" filterUnits="userSpaceOnUse" color-interpolation-filters="sRGB">
<feFlood flood-opacity="0" result="BackgroundImageFix"/>
<feBlend mode="normal" in="SourceGraphic" in2="BackgroundImageFix" result="shape"/>
<feGaussianBlur stdDeviation="36.7709" result="effect1_foregroundBlur_2179_8"/>
</filter>
<filter id="filter7_f_2179_8" x="704.468" y="-725.316" width="631.478" height="983.223" filterUnits="userSpaceOnUse" color-interpolation-filters="sRGB">
<feFlood flood-opacity="0" result="BackgroundImageFix"/>
<feBlend mode="normal" in="SourceGraphic" in2="BackgroundImageFix" result="shape"/>
<feGaussianBlur stdDeviation="36.7709" result="effect1_foregroundBlur_2179_8"/>
</filter>
<filter id="filter8_f_2179_8" x="554.783" y="-635.038" width="568.071" height="919.816" filterUnits="userSpaceOnUse" color-interpolation-filters="sRGB">
<feFlood flood-opacity="0" result="BackgroundImageFix"/>
<feBlend mode="normal" in="SourceGraphic" in2="BackgroundImageFix" result="shape"/>
<feGaussianBlur stdDeviation="20.919" result="effect1_foregroundBlur_2179_8"/>
</filter>
<filter id="filter9_f_2179_8" x="590.327" y="-675.11" width="631.478" height="983.223" filterUnits="userSpaceOnUse" color-interpolation-filters="sRGB">
<feFlood flood-opacity="0" result="BackgroundImageFix"/>
<feBlend mode="normal" in="SourceGraphic" in2="BackgroundImageFix" result="shape"/>
<feGaussianBlur stdDeviation="36.7709" result="effect1_foregroundBlur_2179_8"/>
</filter>
<filter id="filter10_f_2179_8" x="494.361" y="-750.87" width="631.478" height="983.223" filterUnits="userSpaceOnUse" color-interpolation-filters="sRGB">
<feFlood flood-opacity="0" result="BackgroundImageFix"/>
<feBlend mode="normal" in="SourceGraphic" in2="BackgroundImageFix" result="shape"/>
<feGaussianBlur stdDeviation="36.7709" result="effect1_foregroundBlur_2179_8"/>
</filter>
<filter id="filter11_f_2179_8" x="704.468" y="-725.316" width="631.478" height="983.223" filterUnits="userSpaceOnUse" color-interpolation-filters="sRGB">
<feFlood flood-opacity="0" result="BackgroundImageFix"/>
<feBlend mode="normal" in="SourceGraphic" in2="BackgroundImageFix" result="shape"/>
<feGaussianBlur stdDeviation="36.7709" result="effect1_foregroundBlur_2179_8"/>
</filter>
<filter id="filter12_f_2179_8" x="554.783" y="-635.038" width="568.071" height="919.816" filterUnits="userSpaceOnUse" color-interpolation-filters="sRGB">
<feFlood flood-opacity="0" result="BackgroundImageFix"/>
<feBlend mode="normal" in="SourceGraphic" in2="BackgroundImageFix" result="shape"/>
<feGaussianBlur stdDeviation="20.919" result="effect1_foregroundBlur_2179_8"/>
</filter>
<filter id="filter13_f_2179_8" x="590.328" y="-675.11" width="631.478" height="983.223" filterUnits="userSpaceOnUse" color-interpolation-filters="sRGB">
<feFlood flood-opacity="0" result="BackgroundImageFix"/>
<feBlend mode="normal" in="SourceGraphic" in2="BackgroundImageFix" result="shape"/>
<feGaussianBlur stdDeviation="36.7709" result="effect1_foregroundBlur_2179_8"/>
</filter>
<filter id="filter14_f_2179_8" x="481.558" y="-737.245" width="631.478" height="983.223" filterUnits="userSpaceOnUse" color-interpolation-filters="sRGB">
<feFlood flood-opacity="0" result="BackgroundImageFix"/>
<feBlend mode="normal" in="SourceGraphic" in2="BackgroundImageFix" result="shape"/>
<feGaussianBlur stdDeviation="36.7709" result="effect1_foregroundBlur_2179_8"/>
</filter>
<filter id="filter15_f_2179_8" x="704.469" y="-725.316" width="631.478" height="983.223" filterUnits="userSpaceOnUse" color-interpolation-filters="sRGB">
<feFlood flood-opacity="0" result="BackgroundImageFix"/>
<feBlend mode="normal" in="SourceGraphic" in2="BackgroundImageFix" result="shape"/>
<feGaussianBlur stdDeviation="36.7709" result="effect1_foregroundBlur_2179_8"/>
</filter>
<filter id="filter16_f_2179_8" x="646.85" y="-655.117" width="568.071" height="919.816" filterUnits="userSpaceOnUse" color-interpolation-filters="sRGB">
<feFlood flood-opacity="0" result="BackgroundImageFix"/>
<feBlend mode="normal" in="SourceGraphic" in2="BackgroundImageFix" result="shape"/>
<feGaussianBlur stdDeviation="20.919" result="effect1_foregroundBlur_2179_8"/>
</filter>
<filter id="filter17_f_2179_8" x="486.969" y="-486.986" width="568.071" height="919.816" filterUnits="userSpaceOnUse" color-interpolation-filters="sRGB">
<feFlood flood-opacity="0" result="BackgroundImageFix"/>
<feBlend mode="normal" in="SourceGraphic" in2="BackgroundImageFix" result="shape"/>
<feGaussianBlur stdDeviation="20.919" result="effect1_foregroundBlur_2179_8"/>
</filter>
<filter id="filter18_f_2179_8" x="590.327" y="-675.11" width="631.478" height="983.223" filterUnits="userSpaceOnUse" color-interpolation-filters="sRGB">
<feFlood flood-opacity="0" result="BackgroundImageFix"/>
<feBlend mode="normal" in="SourceGraphic" in2="BackgroundImageFix" result="shape"/>
<feGaussianBlur stdDeviation="36.7709" result="effect1_foregroundBlur_2179_8"/>
</filter>
<filter id="filter19_f_2179_8" x="494.361" y="-750.87" width="631.478" height="983.223" filterUnits="userSpaceOnUse" color-interpolation-filters="sRGB">
<feFlood flood-opacity="0" result="BackgroundImageFix"/>
<feBlend mode="normal" in="SourceGraphic" in2="BackgroundImageFix" result="shape"/>
<feGaussianBlur stdDeviation="36.7709" result="effect1_foregroundBlur_2179_8"/>
</filter>
<filter id="filter20_f_2179_8" x="704.468" y="-725.316" width="631.478" height="983.223" filterUnits="userSpaceOnUse" color-interpolation-filters="sRGB">
<feFlood flood-opacity="0" result="BackgroundImageFix"/>
<feBlend mode="normal" in="SourceGraphic" in2="BackgroundImageFix" result="shape"/>
<feGaussianBlur stdDeviation="36.7709" result="effect1_foregroundBlur_2179_8"/>
</filter>
<filter id="filter21_f_2179_8" x="554.783" y="-635.038" width="568.071" height="919.816" filterUnits="userSpaceOnUse" color-interpolation-filters="sRGB">
<feFlood flood-opacity="0" result="BackgroundImageFix"/>
<feBlend mode="normal" in="SourceGraphic" in2="BackgroundImageFix" result="shape"/>
<feGaussianBlur stdDeviation="20.919" result="effect1_foregroundBlur_2179_8"/>
</filter>
<filter id="filter22_f_2179_8" x="590.327" y="-675.11" width="631.478" height="983.223" filterUnits="userSpaceOnUse" color-interpolation-filters="sRGB">
<feFlood flood-opacity="0" result="BackgroundImageFix"/>
<feBlend mode="normal" in="SourceGraphic" in2="BackgroundImageFix" result="shape"/>
<feGaussianBlur stdDeviation="36.7709" result="effect1_foregroundBlur_2179_8"/>
</filter>
<filter id="filter23_f_2179_8" x="494.361" y="-750.87" width="631.478" height="983.223" filterUnits="userSpaceOnUse" color-interpolation-filters="sRGB">
<feFlood flood-opacity="0" result="BackgroundImageFix"/>
<feBlend mode="normal" in="SourceGraphic" in2="BackgroundImageFix" result="shape"/>
<feGaussianBlur stdDeviation="36.7709" result="effect1_foregroundBlur_2179_8"/>
</filter>
<filter id="filter24_f_2179_8" x="704.468" y="-725.316" width="631.478" height="983.223" filterUnits="userSpaceOnUse" color-interpolation-filters="sRGB">
<feFlood flood-opacity="0" result="BackgroundImageFix"/>
<feBlend mode="normal" in="SourceGraphic" in2="BackgroundImageFix" result="shape"/>
<feGaussianBlur stdDeviation="36.7709" result="effect1_foregroundBlur_2179_8"/>
</filter>
<filter id="filter25_f_2179_8" x="554.783" y="-635.038" width="568.071" height="919.816" filterUnits="userSpaceOnUse" color-interpolation-filters="sRGB">
<feFlood flood-opacity="0" result="BackgroundImageFix"/>
<feBlend mode="normal" in="SourceGraphic" in2="BackgroundImageFix" result="shape"/>
<feGaussianBlur stdDeviation="20.919" result="effect1_foregroundBlur_2179_8"/>
</filter>
<filter id="filter26_f_2179_8" x="590.327" y="-675.11" width="631.478" height="983.223" filterUnits="userSpaceOnUse" color-interpolation-filters="sRGB">
<feFlood flood-opacity="0" result="BackgroundImageFix"/>
<feBlend mode="normal" in="SourceGraphic" in2="BackgroundImageFix" result="shape"/>
<feGaussianBlur stdDeviation="36.7709" result="effect1_foregroundBlur_2179_8"/>
</filter>
<filter id="filter27_f_2179_8" x="494.361" y="-750.87" width="631.478" height="983.223" filterUnits="userSpaceOnUse" color-interpolation-filters="sRGB">
<feFlood flood-opacity="0" result="BackgroundImageFix"/>
<feBlend mode="normal" in="SourceGraphic" in2="BackgroundImageFix" result="shape"/>
<feGaussianBlur stdDeviation="36.7709" result="effect1_foregroundBlur_2179_8"/>
</filter>
<filter id="filter28_f_2179_8" x="704.468" y="-725.316" width="631.478" height="983.223" filterUnits="userSpaceOnUse" color-interpolation-filters="sRGB">
<feFlood flood-opacity="0" result="BackgroundImageFix"/>
<feBlend mode="normal" in="SourceGraphic" in2="BackgroundImageFix" result="shape"/>
<feGaussianBlur stdDeviation="36.7709" result="effect1_foregroundBlur_2179_8"/>
</filter>
<filter id="filter29_f_2179_8" x="554.783" y="-635.038" width="568.071" height="919.816" filterUnits="userSpaceOnUse" color-interpolation-filters="sRGB">
<feFlood flood-opacity="0" result="BackgroundImageFix"/>
<feBlend mode="normal" in="SourceGraphic" in2="BackgroundImageFix" result="shape"/>
<feGaussianBlur stdDeviation="20.919" result="effect1_foregroundBlur_2179_8"/>
</filter>
<filter id="filter30_f_2179_8" x="590.328" y="-675.11" width="631.478" height="983.223" filterUnits="userSpaceOnUse" color-interpolation-filters="sRGB">
<feFlood flood-opacity="0" result="BackgroundImageFix"/>
<feBlend mode="normal" in="SourceGraphic" in2="BackgroundImageFix" result="shape"/>
<feGaussianBlur stdDeviation="36.7709" result="effect1_foregroundBlur_2179_8"/>
</filter>
<filter id="filter31_f_2179_8" x="546.485" y="-699.45" width="631.478" height="983.223" filterUnits="userSpaceOnUse" color-interpolation-filters="sRGB">
<feFlood flood-opacity="0" result="BackgroundImageFix"/>
<feBlend mode="normal" in="SourceGraphic" in2="BackgroundImageFix" result="shape"/>
<feGaussianBlur stdDeviation="36.7709" result="effect1_foregroundBlur_2179_8"/>
</filter>
<filter id="filter32_f_2179_8" x="481.558" y="-737.245" width="631.478" height="983.223" filterUnits="userSpaceOnUse" color-interpolation-filters="sRGB">
<feFlood flood-opacity="0" result="BackgroundImageFix"/>
<feBlend mode="normal" in="SourceGraphic" in2="BackgroundImageFix" result="shape"/>
<feGaussianBlur stdDeviation="36.7709" result="effect1_foregroundBlur_2179_8"/>
</filter>
<filter id="filter33_f_2179_8" x="704.469" y="-725.316" width="631.478" height="983.223" filterUnits="userSpaceOnUse" color-interpolation-filters="sRGB">
<feFlood flood-opacity="0" result="BackgroundImageFix"/>
<feBlend mode="normal" in="SourceGraphic" in2="BackgroundImageFix" result="shape"/>
<feGaussianBlur stdDeviation="36.7709" result="effect1_foregroundBlur_2179_8"/>
</filter>
<filter id="filter34_f_2179_8" x="646.85" y="-655.117" width="568.071" height="919.816" filterUnits="userSpaceOnUse" color-interpolation-filters="sRGB">
<feFlood flood-opacity="0" result="BackgroundImageFix"/>
<feBlend mode="normal" in="SourceGraphic" in2="BackgroundImageFix" result="shape"/>
<feGaussianBlur stdDeviation="20.919" result="effect1_foregroundBlur_2179_8"/>
</filter>
<filter id="filter35_f_2179_8" x="486.969" y="-486.986" width="568.071" height="919.816" filterUnits="userSpaceOnUse" color-interpolation-filters="sRGB">
<feFlood flood-opacity="0" result="BackgroundImageFix"/>
<feBlend mode="normal" in="SourceGraphic" in2="BackgroundImageFix" result="shape"/>
<feGaussianBlur stdDeviation="20.919" result="effect1_foregroundBlur_2179_8"/>
</filter>
<radialGradient id="paint0_radial_2179_8" cx="0" cy="0" r="1" gradientUnits="userSpaceOnUse" gradientTransform="translate(2064 678.038) rotate(26.5651) scale(721.132 576.906)">
<stop stop-color="#6721FF"/>
<stop offset="0.7" stop-color="#642EFF" stop-opacity="0"/>
</radialGradient>
<radialGradient id="paint1_radial_2179_8" cx="0" cy="0" r="1" gradientUnits="userSpaceOnUse" gradientTransform="translate(1271.04 915.62) rotate(39.9732) scale(611.604 602.213)">
<stop/>
<stop offset="1" stop-opacity="0"/>
</radialGradient>
<linearGradient id="paint2_linear_2179_8" x1="1134.28" y1="-593.494" x2="850.994" y2="-102.829" gradientUnits="userSpaceOnUse">
<stop stop-color="white"/>
<stop offset="1" stop-color="#9773FE"/>
</linearGradient>
<linearGradient id="paint3_linear_2179_8" x1="1038.31" y1="-669.254" x2="755.028" y2="-178.59" gradientUnits="userSpaceOnUse">
<stop stop-color="white"/>
<stop offset="1" stop-color="#9773FE"/>
</linearGradient>
<linearGradient id="paint4_linear_2179_8" x1="1248.42" y1="-643.7" x2="965.135" y2="-153.035" gradientUnits="userSpaceOnUse">
<stop stop-color="white"/>
<stop offset="1" stop-color="#9773FE"/>
</linearGradient>
<linearGradient id="paint5_linear_2179_8" x1="1067.03" y1="-585.126" x2="783.746" y2="-94.461" gradientUnits="userSpaceOnUse">
<stop stop-color="white"/>
<stop offset="1" stop-color="white"/>
</linearGradient>
<linearGradient id="paint6_linear_2179_8" x1="1134.28" y1="-593.494" x2="850.994" y2="-102.829" gradientUnits="userSpaceOnUse">
<stop stop-color="white"/>
<stop offset="1" stop-color="#9773FE"/>
</linearGradient>
<linearGradient id="paint7_linear_2179_8" x1="1038.31" y1="-669.254" x2="755.028" y2="-178.59" gradientUnits="userSpaceOnUse">
<stop stop-color="white"/>
<stop offset="1" stop-color="#9773FE"/>
</linearGradient>
<linearGradient id="paint8_linear_2179_8" x1="1248.42" y1="-643.7" x2="965.135" y2="-153.035" gradientUnits="userSpaceOnUse">
<stop stop-color="white"/>
<stop offset="1" stop-color="#9773FE"/>
</linearGradient>
<linearGradient id="paint9_linear_2179_8" x1="1067.03" y1="-585.126" x2="783.746" y2="-94.461" gradientUnits="userSpaceOnUse">
<stop stop-color="white"/>
<stop offset="1" stop-color="white"/>
</linearGradient>
<linearGradient id="paint10_linear_2179_8" x1="1134.28" y1="-593.494" x2="850.994" y2="-102.829" gradientUnits="userSpaceOnUse">
<stop stop-color="white"/>
<stop offset="1" stop-color="#9773FE"/>
</linearGradient>
<linearGradient id="paint11_linear_2179_8" x1="1038.31" y1="-669.254" x2="755.028" y2="-178.59" gradientUnits="userSpaceOnUse">
<stop stop-color="white"/>
<stop offset="1" stop-color="#9773FE"/>
</linearGradient>
<linearGradient id="paint12_linear_2179_8" x1="1248.42" y1="-643.7" x2="965.135" y2="-153.035" gradientUnits="userSpaceOnUse">
<stop stop-color="white"/>
<stop offset="1" stop-color="#9773FE"/>
</linearGradient>
<linearGradient id="paint13_linear_2179_8" x1="1067.03" y1="-585.126" x2="783.746" y2="-94.461" gradientUnits="userSpaceOnUse">
<stop stop-color="white"/>
<stop offset="1" stop-color="white"/>
</linearGradient>
<linearGradient id="paint14_linear_2179_8" x1="1134.28" y1="-593.495" x2="850.995" y2="-102.83" gradientUnits="userSpaceOnUse">
<stop stop-color="white"/>
<stop offset="0.557292" stop-color="#00CBFF"/>
<stop offset="1" stop-color="#642EFF"/>
</linearGradient>
<linearGradient id="paint15_linear_2179_8" x1="1025.51" y1="-655.629" x2="742.225" y2="-164.964" gradientUnits="userSpaceOnUse">
<stop stop-color="white"/>
<stop offset="1" stop-color="#9773FE"/>
</linearGradient>
<linearGradient id="paint16_linear_2179_8" x1="1248.42" y1="-643.701" x2="965.136" y2="-153.036" gradientUnits="userSpaceOnUse">
<stop stop-color="white"/>
<stop offset="0.557292" stop-color="#00CBFF"/>
<stop offset="1" stop-color="#642EFF"/>
</linearGradient>
<linearGradient id="paint17_linear_2179_8" x1="1159.1" y1="-605.205" x2="875.814" y2="-114.54" gradientUnits="userSpaceOnUse">
<stop stop-color="white"/>
<stop offset="1" stop-color="white"/>
</linearGradient>
<linearGradient id="paint18_linear_2179_8" x1="999.217" y1="-437.075" x2="715.932" y2="53.5902" gradientUnits="userSpaceOnUse">
<stop stop-color="white"/>
<stop offset="1" stop-color="white"/>
</linearGradient>
<linearGradient id="paint19_linear_2179_8" x1="1134.28" y1="-593.494" x2="850.994" y2="-102.829" gradientUnits="userSpaceOnUse">
<stop stop-color="white"/>
<stop offset="1" stop-color="#9773FE"/>
</linearGradient>
<linearGradient id="paint20_linear_2179_8" x1="1038.31" y1="-669.254" x2="755.028" y2="-178.59" gradientUnits="userSpaceOnUse">
<stop stop-color="white"/>
<stop offset="1" stop-color="#9773FE"/>
</linearGradient>
<linearGradient id="paint21_linear_2179_8" x1="1248.42" y1="-643.7" x2="965.135" y2="-153.035" gradientUnits="userSpaceOnUse">
<stop stop-color="white"/>
<stop offset="1" stop-color="#9773FE"/>
</linearGradient>
<linearGradient id="paint22_linear_2179_8" x1="1067.03" y1="-585.126" x2="783.746" y2="-94.461" gradientUnits="userSpaceOnUse">
<stop stop-color="white"/>
<stop offset="1" stop-color="white"/>
</linearGradient>
<linearGradient id="paint23_linear_2179_8" x1="1134.28" y1="-593.494" x2="850.994" y2="-102.829" gradientUnits="userSpaceOnUse">
<stop stop-color="white"/>
<stop offset="1" stop-color="#9773FE"/>
</linearGradient>
<linearGradient id="paint24_linear_2179_8" x1="1038.31" y1="-669.254" x2="755.028" y2="-178.59" gradientUnits="userSpaceOnUse">
<stop stop-color="white"/>
<stop offset="1" stop-color="#9773FE"/>
</linearGradient>
<linearGradient id="paint25_linear_2179_8" x1="1248.42" y1="-643.7" x2="965.135" y2="-153.035" gradientUnits="userSpaceOnUse">
<stop stop-color="white"/>
<stop offset="1" stop-color="#9773FE"/>
</linearGradient>
<linearGradient id="paint26_linear_2179_8" x1="1067.03" y1="-585.126" x2="783.746" y2="-94.461" gradientUnits="userSpaceOnUse">
<stop stop-color="white"/>
<stop offset="1" stop-color="white"/>
</linearGradient>
<linearGradient id="paint27_linear_2179_8" x1="1134.28" y1="-593.494" x2="850.994" y2="-102.829" gradientUnits="userSpaceOnUse">
<stop stop-color="white"/>
<stop offset="1" stop-color="#9773FE"/>
</linearGradient>
<linearGradient id="paint28_linear_2179_8" x1="1038.31" y1="-669.254" x2="755.028" y2="-178.59" gradientUnits="userSpaceOnUse">
<stop stop-color="white"/>
<stop offset="1" stop-color="#9773FE"/>
</linearGradient>
<linearGradient id="paint29_linear_2179_8" x1="1248.42" y1="-643.7" x2="965.135" y2="-153.035" gradientUnits="userSpaceOnUse">
<stop stop-color="white"/>
<stop offset="1" stop-color="#9773FE"/>
</linearGradient>
<linearGradient id="paint30_linear_2179_8" x1="1067.03" y1="-585.126" x2="783.746" y2="-94.461" gradientUnits="userSpaceOnUse">
<stop stop-color="white"/>
<stop offset="1" stop-color="white"/>
</linearGradient>
<linearGradient id="paint31_linear_2179_8" x1="1134.28" y1="-593.495" x2="850.995" y2="-102.83" gradientUnits="userSpaceOnUse">
<stop stop-color="white"/>
<stop offset="0.557292" stop-color="#00CBFF"/>
<stop offset="1" stop-color="#642EFF"/>
</linearGradient>
<linearGradient id="paint32_linear_2179_8" x1="1090.44" y1="-617.834" x2="807.152" y2="-127.169" gradientUnits="userSpaceOnUse">
<stop stop-color="white"/>
<stop offset="0.557292" stop-color="#00CBFF"/>
<stop offset="1" stop-color="#642EFF"/>
</linearGradient>
<linearGradient id="paint33_linear_2179_8" x1="1025.51" y1="-655.629" x2="742.225" y2="-164.964" gradientUnits="userSpaceOnUse">
<stop stop-color="white"/>
<stop offset="1" stop-color="#9773FE"/>
</linearGradient>
<linearGradient id="paint34_linear_2179_8" x1="1248.42" y1="-643.701" x2="965.136" y2="-153.036" gradientUnits="userSpaceOnUse">
<stop stop-color="white"/>
<stop offset="0.557292" stop-color="#00CBFF"/>
<stop offset="1" stop-color="#642EFF"/>
</linearGradient>
<linearGradient id="paint35_linear_2179_8" x1="1159.1" y1="-605.205" x2="875.814" y2="-114.54" gradientUnits="userSpaceOnUse">
<stop stop-color="white"/>
<stop offset="1" stop-color="white"/>
</linearGradient>
<linearGradient id="paint36_linear_2179_8" x1="999.217" y1="-437.075" x2="715.932" y2="53.5902" gradientUnits="userSpaceOnUse">
<stop stop-color="white"/>
<stop offset="1" stop-color="white"/>
</linearGradient>
<radialGradient id="paint37_radial_2179_8" cx="0" cy="0" r="1" gradientUnits="userSpaceOnUse" gradientTransform="translate(644.604 324.744) rotate(90) scale(416.421 688.069)">
<stop stop-color="white"/>
<stop offset="1" stop-color="white" stop-opacity="0.2"/>
</radialGradient>
<clipPath id="clip0_2179_8">
<rect width="1548" height="923.425" fill="white" transform="translate(0 0.787476)"/>
</clipPath>
<clipPath id="clip1_2179_8">
<rect width="1290" height="645" fill="white" transform="matrix(-1 0 0 -1 1419 431.862)"/>
</clipPath>
<clipPath id="clip2_2179_8">
<rect width="937.4" height="785.825" fill="white" transform="translate(802.344 522.708) rotate(-144.893)"/>
</clipPath>
</defs>
</svg>
