<svg width="456" height="157" viewBox="0 0 456 157" fill="none" xmlns="http://www.w3.org/2000/svg">
<path d="M453.452 73.0476C448.623 69.5802 434.812 66.4052 420.072 66.4849C407.747 66.5513 383.959 73.1937 383.959 73.1937C375.27 65.4221 344.225 58.5803 323.542 73.3531C318.023 57.8629 295.867 51.619 283.197 61.9813C287.628 40.1675 270.912 16.321 249.008 13.2655C227.104 10.21 204.656 28.5697 203.104 50.8087C203.98 37.5902 187.104 27.0287 175.761 33.711C173.757 14.4479 154.865 -1.41429 135.708 0.100185C116.55 1.61466 100.431 20.2933 101.519 39.6228C95.1506 28.2908 79.6149 23.269 67.9267 28.7557C66.7193 29.3197 65.5648 29.9911 64.4773 30.7617C61.8407 32.64 59.5887 35.0077 57.8438 37.7363C43.1705 33.3922 18.6797 37.1385 11.9799 57.7832C10.723 61.6085 10.2316 65.6443 10.5338 69.6599C10.6573 71.1703 10.9058 72.6678 11.2767 74.1369C9.34258 74.2186 7.46242 74.7997 5.81887 75.824C4.17532 76.8482 2.82426 78.2807 1.89696 79.9823C-0.127368 84.0446 -0.548954 88.7216 0.716196 93.0812C1.71812 97.1207 3.6227 100.88 6.28637 104.075C8.95004 107.27 12.3033 109.819 16.0934 111.528C19.8836 113.236 24.0116 114.062 28.1665 113.941C32.3214 113.82 36.3947 112.756 40.0793 110.83C45.7841 120.86 56.8223 127.263 68.2849 128.698C79.7476 130.133 91.4358 126.944 101.452 121.232C95.7343 137.254 111.734 149.861 118.355 152.797C139.237 162.017 169.26 156.251 184.026 133.693C184.026 133.693 191.708 143.962 203.927 141.664C213.041 139.95 216.822 134.264 218.388 130.319C222.817 135.028 228.294 138.624 234.374 140.812C240.453 143.001 246.963 143.721 253.373 142.913C269.863 141.252 278.925 133.68 283.767 124.646C289.565 127.104 295.071 127.423 298.759 126.293C315.475 121.179 314.586 107.934 312.57 104.679C314.481 105.474 316.573 105.731 318.62 105.423C321.538 105.011 325.081 103.417 328.809 99.2852L330.281 99.8167C338.119 102.662 346.477 103.782 354.785 103.098C368.888 101.876 379.807 95.4061 387.051 90.4774C396.523 89.9593 405.28 89.4146 413.996 88.2721C416.198 87.9931 418.401 87.6742 420.629 87.289C429.735 85.7722 438.684 83.4243 447.362 80.2746C448.928 79.7166 450.52 79.1321 452.112 78.4944C456.105 76.9268 456.105 74.8942 453.452 73.0476Z" fill="white"/>
<path d="M319.672 93.1372C317.342 93.1804 315.072 93.8873 313.131 95.1745C309.497 93.4439 305.554 92.4508 301.531 92.2533C297.508 92.0557 293.487 92.6575 289.699 94.0236C291.194 89.9003 294.077 86.4216 297.856 84.1804C301.635 81.9393 306.077 81.0745 310.424 81.7336C302.118 76.9446 289.062 76.8255 281.924 83.1888C279.948 85.2921 278.2 87.598 276.71 90.068C276.71 90.068 268.444 78.3469 256.422 76.5742C249.231 75.5158 237.714 78.7834 232.102 87.6868C225.866 67.2872 198.639 60.527 181.961 75.7804C192.907 71.9704 204.756 72.5789 207.622 83.8503C198.148 78.9819 184.96 84.7895 182.147 95.0687C181.404 89.777 174.013 86.9592 169.966 90.3459C168.958 91.2991 168.233 92.5109 167.87 93.8481C167.508 95.1853 167.521 96.5962 167.91 97.9262C150.528 85.7156 125.584 92.3302 118.048 101.194C121.285 90.5443 131.86 85.9934 143.868 86.5226C130.732 76.217 111.467 73.2933 97.6012 82.395C103.174 74.8279 99.7639 62.5511 91.3784 58.2913C82.9928 54.0314 71.7148 57.8018 66.9515 65.8981C62.1882 73.9944 63.8335 85.1599 70.2022 92.1318C63.2466 91.9252 56.3108 92.974 49.7293 95.2275C55.5806 99.011 56.3634 108.007 56.3634 108.007C46.2132 95.3333 30.7822 96.1006 30.7822 96.1006C30.7822 96.1006 34.7627 92.5419 43.7586 93.4547C42.1991 88.676 39.4619 84.3638 35.7976 80.9134C29.4952 74.7221 20.2737 74.2326 11.2778 74.4839C9.3435 74.5652 7.46314 75.1439 5.81943 76.1639C4.17572 77.1838 2.82454 78.6103 1.89714 80.3048C-0.127381 84.3501 -0.549008 89.0075 0.716266 93.3489C1.71829 97.3715 3.62305 101.115 6.28698 104.297C8.95092 107.479 12.3045 110.016 16.095 111.718C19.8855 113.42 24.014 114.241 28.1693 114.121C32.3245 114.001 36.3982 112.942 40.0832 111.023C45.7886 121.011 56.8278 127.388 68.2916 128.817C79.7554 130.245 91.4447 127.07 101.462 121.382C95.7437 137.336 111.745 149.891 118.366 152.815C139.25 161.996 169.276 156.254 184.044 133.791C184.044 133.791 191.726 144.017 203.946 141.728C213.062 140.022 216.843 134.36 218.409 130.431C222.838 135.12 228.316 138.701 234.396 140.88C240.476 143.06 246.987 143.776 253.397 142.972C269.89 141.318 278.952 133.778 283.795 124.782C289.593 127.229 295.099 127.547 298.788 126.422C315.506 121.329 314.617 108.139 312.6 104.898C314.512 105.689 316.604 105.946 318.651 105.639C321.57 105.229 325.112 103.641 328.841 99.527L330.314 100.056C338.152 102.89 346.511 104.004 354.82 103.324C341.419 97.3574 328.39 92.5948 319.672 93.1372Z" fill="#CCE1F4"/>
</svg>
