<svg width="112" height="112" viewBox="0 0 112 112" fill="none" xmlns="http://www.w3.org/2000/svg">
<g clip-path="url(#clip0_2150_74)">
<path fill-rule="evenodd" clip-rule="evenodd" d="M112 66.7334C110.366 63.4285 108.395 60.3009 106.12 57.4C104.388 55.2547 102.089 53.6379 99.484 52.7334C98.1983 52.4258 96.8502 52.507 95.6107 52.9667C93.7907 53.5267 91.5974 54.6 89.6374 55.3C87.6774 56 86.786 55.02 86.0394 54.04C84.546 51.982 83.3794 49.3687 82.0727 47.642C80.158 45.003 77.6006 42.897 74.6434 41.524C73.6828 41.1768 72.6573 41.0469 71.6405 41.1437C70.6237 41.2406 69.6411 41.5617 68.7634 42.084C67.1398 42.9612 65.9189 44.433 65.3567 46.1907C64.6615 48.4663 64.7938 50.9145 65.73 53.102C66.5 54.8427 67.4707 56.49 68.6234 58.002C71.0888 60.8625 73.3945 63.8568 75.53 66.9714C76.1367 67.9514 76.79 68.9314 77.35 69.958C75.5658 69.0782 73.687 68.4049 71.75 67.9514C70.4646 67.7162 69.1391 67.8455 67.9234 68.3247C67.107 68.6772 66.3973 69.2376 65.8651 69.95C65.3328 70.6624 64.9966 71.5019 64.89 72.3847C64.7967 75.208 65.562 77.994 67.0834 80.374C68.4927 82.4507 70.3827 84.1634 72.59 85.3674C76.9767 87.794 82.208 87.934 87.3927 90.034C87.5707 90.1592 87.7738 90.2439 87.988 90.2824C88.2021 90.3208 88.4221 90.312 88.6324 90.2565C88.8428 90.2011 89.0385 90.1003 89.2059 89.9613C89.3732 89.8223 89.5082 89.6484 89.6014 89.4518C89.6945 89.2552 89.7435 89.0406 89.7451 88.823C89.7466 88.6055 89.7006 88.3902 89.6102 88.1923C89.5199 87.9944 89.3873 87.8186 89.2219 87.6773C89.0566 87.5359 88.8623 87.4324 88.6527 87.374C84.406 85.2274 80.0147 84.6207 76.188 82.7074C73.832 81.6692 71.8571 79.9242 70.5367 77.714C70.0204 76.8144 69.6576 75.835 69.4634 74.816C69.4213 74.2568 69.4213 73.6952 69.4634 73.136C69.4634 72.856 69.4634 72.5294 69.7434 72.436C70.8661 72.27 72.0109 72.5189 72.9634 73.136C74.55 73.836 76.23 74.7227 77.63 75.2827C78.722 75.698 79.8747 75.9174 81.0414 75.936C81.748 75.9369 82.4279 75.6662 82.9404 75.1797C83.4529 74.6933 83.7588 74.0284 83.7947 73.3227C83.7947 72.2649 83.6858 71.2227 83.468 70.196C83.2148 69.1729 82.8388 68.1841 82.348 67.2514C81.7414 66.0847 81.0414 64.9647 80.4347 63.8447C78.2049 60.5942 75.7898 57.4748 73.2014 54.502C72.31 53.3494 71.5567 52.0965 70.9567 50.7687C70.6095 49.9936 70.4804 49.1384 70.5834 48.2954C70.6082 48.0199 70.697 47.7541 70.8429 47.5191C70.9887 47.2841 71.1875 47.0865 71.4234 46.942C72.2634 46.4287 73.15 46.942 73.9434 47.5487C75.3123 48.6065 76.5256 49.8198 77.5834 51.1887C78.9367 52.8687 80.248 55.3887 81.788 57.3954C82.6 58.4687 83.5754 59.402 84.6814 60.1534C85.3811 60.5629 86.1626 60.813 86.9701 60.8856C87.7776 60.9582 88.5912 60.8516 89.3527 60.5734C91.4558 59.8174 93.5091 58.9462 95.5127 57.96C96.5907 57.4934 97.4774 56.8867 98.1307 57.0734C100.058 57.6287 101.789 58.7114 103.124 60.2C105.336 62.7667 107.277 65.5527 108.92 68.5114C109.181 68.8278 109.547 69.0407 109.951 69.1121C110.355 69.1834 110.772 69.1084 111.126 68.9005C111.48 68.6927 111.748 68.3656 111.882 67.9778C112.017 67.5901 112.009 67.1671 111.86 66.7847L112 66.7334ZM28.6067 38.5327C28.7766 38.4326 28.9243 38.2989 29.0406 38.1396C29.157 37.9804 29.2396 37.7991 29.2833 37.6068C29.327 37.4145 29.3309 37.2152 29.2948 37.0214C29.2587 36.8275 29.1834 36.643 29.0734 36.4794C28.8535 36.1429 28.5107 35.9058 28.1184 35.8186C27.726 35.7314 27.3151 35.801 26.9734 36.0127L22.022 39.2794C20.9487 40.0727 18.9887 41.006 17.3554 42.126C16.4905 42.8322 15.7734 43.6582 15.204 44.604C14.9709 45.1005 14.8501 45.6422 14.8501 46.1907C14.8501 46.7392 14.9709 47.2809 15.204 47.7774C15.9134 49.1774 16.8794 50.428 18.0507 51.4687C19.0556 52.2558 20.1289 52.9247 21.2707 53.4754C23.5574 54.5954 25.942 55.2954 28.3267 56.322C28.7091 56.4711 29.1321 56.479 29.5199 56.3444C29.9076 56.2098 30.2347 55.9415 30.4426 55.5876C30.6504 55.2337 30.7254 54.8174 30.6541 54.4132C30.5828 54.009 30.3698 53.6434 30.0534 53.382C28.3267 52.122 26.4134 51.0487 24.64 49.8354C23.6317 49.1335 22.72 48.3019 21.9287 47.362C21.6492 47.1803 21.384 46.9775 21.1354 46.7554L25.0554 42.5507L28.6067 38.5327ZM41.398 30.8747C39.858 33.8614 38.1314 36.7127 36.7314 39.746C36.1092 41.0402 35.5647 42.364 35.098 43.7174C34.5847 45.024 34.1647 46.424 33.7447 47.7774C32.8114 51.044 32.1534 54.362 31.5 57.6334C31.4273 58.0462 31.5071 58.4714 31.7247 58.8296C31.9424 59.1879 32.2829 59.4547 32.6828 59.5804C33.0827 59.7061 33.5146 59.682 33.8981 59.5127C34.2815 59.3433 34.5903 59.0402 34.7667 58.66C36.0734 55.5334 37.6134 52.5467 38.9667 49.322C39.858 47.2687 40.7447 45.1687 41.4447 43.0174C42.658 39.3307 43.358 35.6394 44.2914 31.906C44.4168 31.5277 44.3952 31.116 44.2309 30.7528C44.0666 30.3897 43.7717 30.1016 43.4047 29.946C43.2119 29.8721 43.0063 29.8376 42.7999 29.8447C42.5936 29.8519 42.3908 29.9004 42.2036 29.9875C42.0164 30.0746 41.8486 30.1984 41.7102 30.3516C41.5718 30.5048 41.4657 30.6796 41.398 30.8747ZM52.4674 47.0307L50.1807 49.6907L46.116 53.7554C45.741 54.0111 45.4818 54.4042 45.3945 54.8496C45.3072 55.295 45.3987 55.7569 45.6494 56.1354C45.768 56.3232 45.9228 56.4857 46.1046 56.6134C46.2865 56.741 46.4919 56.8314 46.7089 56.8791C46.9259 56.9268 47.1502 56.9311 47.3689 56.8915C47.5875 56.852 47.7962 56.7694 47.9827 56.6487L53.256 53.1487L56.3407 50.8154C57.3829 49.882 58.3163 48.8554 59.1407 47.7354C59.9014 46.7647 60.4147 45.626 60.634 44.422C60.649 43.9847 60.5692 43.5493 60.4 43.1457C60.2308 42.7422 59.9764 42.38 59.654 42.084C58.8988 41.3614 58.0698 40.7202 57.1807 40.1707C55.6731 39.2588 54.115 38.433 52.514 37.6974C50.9917 36.99 49.4323 36.3653 47.8427 35.826C47.4767 35.6659 47.0628 35.6543 46.6884 35.7936C46.314 35.9329 46.0083 36.2123 45.836 36.5727C45.6759 36.9387 45.6643 37.3526 45.8036 37.727C45.9429 38.1014 46.2223 38.4071 46.5827 38.5794C47.8894 39.4007 49.1338 40.3029 50.316 41.286C51.4889 42.2629 52.5934 43.3067 53.6294 44.4174C54.236 44.6974 55.076 44.044 52.4627 47.0307M60.312 11.6387C61.712 11.9187 63.812 7.85869 63.812 7.76536C64.0114 7.39088 64.1231 6.97599 64.1387 6.55202C64.1854 6.11025 64.1854 5.67469 64.1387 5.24536C63.6254 0.107357 62.272 0.574024 61.8054 0.294024C61.3387 0.014024 60.2654 0.294024 58.8187 4.54069C58.6356 4.89186 58.5096 5.26992 58.4454 5.66069C58.3926 6.06341 58.3926 6.4713 58.4454 6.87402C58.4454 6.87402 58.9587 11.4054 60.312 11.6387ZM80.9014 18.41C81.368 18.1176 81.788 17.7754 82.1614 17.3834C82.544 17.01 82.8863 16.6056 83.188 16.17C86.5947 11.8254 86.3147 11.4987 85.708 10.5187C85.1014 9.53869 83.9814 9.39869 79.548 12.152C79.0606 12.465 78.593 12.8078 78.148 13.1787C77.7483 13.5909 77.3742 14.0272 77.028 14.4854C73.8547 19.152 74.788 19.9967 75.1614 20.37C75.5347 20.7434 76.2347 21.5834 80.9014 18.41ZM81.8347 30.268C82.1147 32.0414 88.5594 31.948 88.6994 31.948C89.6327 31.864 90.5505 31.6929 91.4527 31.4347C97.0574 30.0347 97.2907 29.6147 97.2907 28.5414C97.2907 27.468 96.404 26.2547 90.944 25.9747C90.2925 25.9059 89.6356 25.9059 88.984 25.9747C88.3494 26.068 87.7256 26.208 87.1127 26.3947C81.466 28.6347 81.746 29.6614 81.8394 30.268" fill="url(#paint0_linear_2150_74)"/>
<path d="M22.1155 85.4605C21.9193 85.4666 21.7263 85.5112 21.5474 85.5919C21.3685 85.6726 21.2073 85.7877 21.073 85.9307C20.9386 86.0738 20.8338 86.2418 20.7644 86.4254C20.6951 86.609 20.6626 86.8044 20.6688 87.0005C20.6688 94.2385 20.6688 94.7985 22.6755 96.3385C24.0288 97.4445 25.6341 98.2146 27.3421 98.5786C27.2315 100.98 27.8563 103.357 29.133 105.393C30.4097 107.43 32.2775 109.028 34.4868 109.975C36.4888 110.913 38.6401 111.501 40.8381 111.701C42.9988 111.902 45.1781 111.743 47.2781 111.235C49.9064 110.827 52.3538 109.646 54.3085 107.843C56.2633 106.04 57.6368 103.695 58.2541 101.108C58.3481 100.879 58.392 100.633 58.3826 100.386C58.3733 100.139 58.3111 99.897 58.2001 99.6761C58.0892 99.4553 57.9321 99.2608 57.7395 99.1059C57.5469 98.9509 57.3233 98.8391 57.0837 98.7781C56.8442 98.717 56.5944 98.7081 56.3511 98.7519C56.1078 98.7957 55.8768 98.8913 55.6737 99.0321C55.4705 99.1729 55.2999 99.3556 55.1735 99.568C55.0471 99.7804 54.9677 100.018 54.9408 100.263C54.1821 101.925 52.9679 103.337 51.439 104.337C49.9101 105.336 48.1292 105.882 46.3028 105.91C44.7519 106.079 43.1871 106.079 41.6361 105.91C40.0394 105.754 38.4693 105.394 36.9648 104.837C35.5808 104.475 34.309 103.773 33.265 102.795C32.221 101.817 31.4379 100.594 30.9868 99.2365L32.2935 99.5166C37.1748 100.417 42.1401 100.73 47.0961 100.45C50.5129 100.198 53.8688 99.411 57.0408 98.1165L60.8675 95.7832C61.3341 95.4223 61.7541 95.0179 62.1275 94.5699C62.5475 94.1001 62.9208 93.6023 63.2475 93.0765C64.1723 91.9688 64.6789 90.5716 64.6789 89.1286C64.6789 87.6855 64.1723 86.2883 63.2475 85.1805C62.6231 84.5057 61.8796 83.952 61.0541 83.5472C57.4914 82.5338 53.7872 82.1082 50.0875 82.2872L39.3448 83.1739C35.3315 83.6405 31.3135 84.3872 27.2488 84.9006L22.1155 85.4605ZM24.8688 90.1272L25.8955 88.1672L39.9048 87.4672H50.4561C52.889 87.3849 55.3222 87.6202 57.6941 88.1672C58.214 88.2741 58.6967 88.5154 59.0941 88.8672C58.9659 89.2293 58.7935 89.5741 58.5808 89.8939L57.5541 91.1072L54.9875 92.6519C51.6555 94.1452 48.0808 95.0132 44.4361 95.2185C40.5041 95.5599 36.5493 95.5443 32.6201 95.1719C30.0398 95.2412 27.4848 94.6466 25.2001 93.4452C24.4488 92.8385 24.2621 91.8119 24.8735 90.2252L24.8688 90.1272ZM62.1275 79.9025C62.9675 75.2359 62.4075 75.2359 61.6141 74.7692C60.8208 74.3025 59.7475 75.1892 56.9475 79.2025C56.8537 79.4125 56.7445 79.6153 56.6208 79.8092C56.6208 81.3025 61.2875 82.8426 61.9875 81.3026L62.1275 79.9025ZM72.5901 30.2212C71.4547 26.694 69.4858 23.4925 66.8501 20.8879C64.3159 18.3801 61.418 16.2688 58.2541 14.6252C53.1843 12.0574 47.6368 10.5698 41.9624 10.2565C36.2881 9.94326 30.6105 10.8111 25.2888 12.8052C19.818 14.6487 14.8239 17.682 10.6659 21.6868C6.50777 25.6915 3.28911 30.5682 1.24146 35.9659C-0.412519 41.2879 -0.412519 46.9865 1.24146 52.3085C2.81824 57.4491 5.42368 62.2154 8.89946 66.3179C10.9995 68.7912 13.5661 70.9845 15.7175 73.2245C16.6352 74.1423 17.4752 75.1239 18.2375 76.1692C19.4835 77.8166 20.5335 79.6039 21.3641 81.4892C21.3641 81.8625 21.6441 82.2825 21.8308 82.7025C22.2041 84.3872 25.2421 83.7759 25.2888 82.4692C25.3355 81.1626 24.7755 80.9292 24.4488 80.1825C23.5946 78.0367 22.5152 75.9874 21.2288 74.0692C20.4402 72.8135 19.5671 71.613 18.6155 70.4759C16.6088 68.0912 14.2708 65.8045 12.3575 63.4199C9.51185 59.7182 7.44646 55.4778 6.28613 50.9552C5.16146 46.6385 5.3528 42.0885 6.84613 37.8792C8.62772 33.2913 11.3888 29.1473 14.9368 25.7363C18.4848 22.3253 22.7343 19.7295 27.3888 18.1299C32.0118 16.2977 36.9543 15.4076 41.926 15.5117C46.8978 15.6159 51.7986 16.7123 56.3408 18.7365C59.1875 20.1225 61.8288 21.8959 64.1855 24.0099C66.4628 26.0166 68.2361 28.5272 69.3655 31.3412C69.4581 31.6052 69.6136 31.8428 69.8184 32.0334C70.0233 32.224 70.2713 32.3619 70.5413 32.4354C70.8113 32.5089 71.0951 32.5156 71.3683 32.4551C71.6414 32.3945 71.8958 32.2685 72.1095 32.0879C72.3715 31.8637 72.5582 31.5643 72.6441 31.2303C72.7301 30.8964 72.7113 30.5441 72.5901 30.2212Z" fill="url(#paint1_linear_2150_74)"/>
</g>
<defs>
<linearGradient id="paint0_linear_2150_74" x1="63.4251" y1="0.216461" x2="63.4251" y2="90.3059" gradientUnits="userSpaceOnUse">
<stop stop-color="#11C3FF"/>
<stop offset="1" stop-color="#03A6DD"/>
</linearGradient>
<linearGradient id="paint1_linear_2150_74" x1="36.3491" y1="10.1941" x2="36.3491" y2="111.785" gradientUnits="userSpaceOnUse">
<stop stop-color="#11C3FF"/>
<stop offset="1" stop-color="#03A6DD"/>
</linearGradient>
<clipPath id="clip0_2150_74">
<rect width="112" height="112" fill="white"/>
</clipPath>
</defs>
</svg>
