<svg xmlns="http://www.w3.org/2000/svg" xmlns:xlink="http://www.w3.org/1999/xlink"
  style="display:none">

  <!-- home -->
  <symbol id="home">
    <path fill="currentColor"
      d="M11.336 2.253a1 1 0 0 1 1.328 0l9 8a1 1 0 0 1-1.328 1.494L20 11.45V19a2 2 0 0 1-2 2H6a2 2 0 0 1-2-2v-7.55l-.336.297a1 1 0 0 1-1.328-1.494zM6 9.67V19h3v-5a1 1 0 0 1 1-1h4a1 1 0 0 1 1 1v5h3V9.671l-6-5.333zM13 19v-4h-2v4z" />
  </symbol>

  <symbol id="languages">
    <path fill="none" stroke="currentColor" stroke-linecap="round" stroke-linejoin="round"
      stroke-width="1.5"
      d="M8 12h.009m3.986 0h.01m3.986 0H16m2 9c1.232 0 2.231-1.151 2.231-2.571c0-2.248-.1-3.742 1.442-5.52c.436-.502.436-1.316 0-1.818c-1.542-1.777-1.442-3.272-1.442-5.52C20.231 4.151 19.232 3 18 3M6 21c-1.232 0-2.231-1.151-2.231-2.571c0-2.248.1-3.742-1.442-5.52c-.436-.502-.436-1.316 0-1.818C3.835 9.353 3.769 7.84 3.769 5.57C3.769 4.151 4.768 3 6 3"
      color="currentColor" />
  </symbol>

  <symbol id="arrowbottom">
    <path fill-rule="evenodd"
      d="M5.22 8.22a.75.75 0 0 1 1.06 0L10 11.94l3.72-3.72a.75.75 0 1 1 1.06 1.06l-4.25 4.25a.75.75 0 0 1-1.06 0L5.22 9.28a.75.75 0 0 1 0-1.06Z"
      clip-rule="evenodd" />
  </symbol>

  <symbol id="user">
    <g fill="none" stroke="currentColor" stroke-linecap="round" stroke-linejoin="round"
      stroke-width="2">
      <path d="M19 21v-2a4 4 0 0 0-4-4H9a4 4 0 0 0-4 4v2" />
      <circle cx="12" cy="7" r="4" />
    </g>
  </symbol>

  <symbol id="goout">
    <path fill="#DF3636"
      d="M5 21q-.825 0-1.412-.587T3 19V5q0-.825.588-1.412T5 3h6q.425 0 .713.288T12 4t-.288.713T11 5H5v14h6q.425 0 .713.288T12 20t-.288.713T11 21zm12.175-8H10q-.425 0-.712-.288T9 12t.288-.712T10 11h7.175L15.3 9.125q-.275-.275-.275-.675t.275-.7t.7-.313t.725.288L20.3 11.3q.3.3.3.7t-.3.7l-3.575 3.575q-.3.3-.712.288t-.713-.313q-.275-.3-.262-.712t.287-.688z" />
  </symbol>
  <symbol id="google">
    <path fill="#ffc107"
      d="M43.611 20.083H42V20H24v8h11.303c-1.649 4.657-6.08 8-11.303 8c-6.627 0-12-5.373-12-12s5.373-12 12-12c3.059 0 5.842 1.154 7.961 3.039l5.657-5.657C34.046 6.053 29.268 4 24 4C12.955 4 4 12.955 4 24s8.955 20 20 20s20-8.955 20-20c0-1.341-.138-2.65-.389-3.917" />
    <path fill="#ff3d00"
      d="m6.306 14.691l6.571 4.819C14.655 15.108 18.961 12 24 12c3.059 0 5.842 1.154 7.961 3.039l5.657-5.657C34.046 6.053 29.268 4 24 4C16.318 4 9.656 8.337 6.306 14.691" />
    <path fill="#4caf50"
      d="M24 44c5.166 0 9.86-1.977 13.409-5.192l-6.19-5.238A11.9 11.9 0 0 1 24 36c-5.202 0-9.619-3.317-11.283-7.946l-6.522 5.025C9.505 39.556 16.227 44 24 44" />
    <path fill="#1976d2"
      d="M43.611 20.083H42V20H24v8h11.303a12.04 12.04 0 0 1-4.087 5.571l.003-.002l6.19 5.238C36.971 39.205 44 34 44 24c0-1.341-.138-2.65-.389-3.917" />
  </symbol>
  <!-- ocultar contraseña -->
  <symbol id="eyeslash">
    <path fill="currentColor"
      d="M17.883 19.297A10.95 10.95 0 0 1 12 21c-5.392 0-9.878-3.88-10.818-9A11 11 0 0 1 4.52 5.935L1.394 2.808l1.414-1.414l19.799 19.798l-1.414 1.415zM5.936 7.35A8.97 8.97 0 0 0 3.223 12a9.005 9.005 0 0 0 13.201 5.838l-2.028-2.028A4.5 4.5 0 0 1 8.19 9.604zm6.978 6.978l-3.242-3.241a2.5 2.5 0 0 0 3.241 3.241m7.893 2.265l-1.431-1.431A8.9 8.9 0 0 0 20.778 12A9.005 9.005 0 0 0 9.552 5.338L7.974 3.76C9.221 3.27 10.58 3 12 3c5.392 0 9.878 3.88 10.819 9a10.95 10.95 0 0 1-2.012 4.593m-9.084-9.084Q11.86 7.5 12 7.5a4.5 4.5 0 0 1 4.492 4.778z" />
  </symbol>
  <!-- mostrar contraseña -->
  <symbol id="eye">
    <g fill="none" stroke="currentColor" stroke-width="1.5">
      <path
        d="M3.275 15.296C2.425 14.192 2 13.639 2 12c0-1.64.425-2.191 1.275-3.296C4.972 6.5 7.818 4 12 4s7.028 2.5 8.725 4.704C21.575 9.81 22 10.361 22 12c0 1.64-.425 2.191-1.275 3.296C19.028 17.5 16.182 20 12 20s-7.028-2.5-8.725-4.704Z" />
      <path d="M15 12a3 3 0 1 1-6 0a3 3 0 0 1 6 0Z" />
    </g>
  </symbol>
  <symbol id="alert">
    <g fill="none">
      <path
        d="m12.593 23.258l-.011.002l-.071.035l-.02.004l-.014-.004l-.071-.035q-.016-.005-.024.005l-.004.01l-.017.428l.005.02l.01.013l.104.074l.015.004l.012-.004l.104-.074l.012-.016l.004-.017l-.017-.427q-.004-.016-.017-.018m.265-.113l-.013.002l-.185.093l-.01.01l-.003.011l.018.43l.005.012l.008.007l.201.093q.019.005.029-.008l.004-.014l-.034-.614q-.005-.018-.02-.022m-.715.002a.02.02 0 0 0-.027.006l-.006.014l-.034.614q.001.018.017.024l.015-.002l.201-.093l.01-.008l.004-.011l.017-.43l-.003-.012l-.01-.01z" />
      <path fill="#ffc900"
        d="m13.299 3.148l8.634 14.954a1.5 1.5 0 0 1-1.299 2.25H3.366a1.5 1.5 0 0 1-1.299-2.25l8.634-14.954c.577-1 2.02-1 2.598 0M12 15a1 1 0 1 0 0 2a1 1 0 0 0 0-2m0-7a1 1 0 0 0-.993.883L11 9v4a1 1 0 0 0 1.993.117L13 13V9a1 1 0 0 0-1-1" />
    </g>
  </symbol>
  <symbol id="error">
    <path d="M10 0a10 10 0 1 0 10 10A10 10 0 0 0 10 0Zm1 15H9v-2h2Zm0-4H9V5h2Z" />
  </symbol>
  <symbol id="spinner">
    <defs>
      <linearGradient x1="0%" y1="100%" x2="100%" y2="100%" id="linearGradient-1">
        <stop stop-color="white" stop-opacity="0" offset="0%"></stop>
        <stop stop-color="white" stop-opacity="0.50" offset="39.9430698%"></stop>
        <stop stop-color="white" offset="100%"></stop>
      </linearGradient>
    </defs>
    <g stroke="none" stroke-width="1" fill="none" fill-rule="evenodd">
      <rect fill-opacity="0.01" fill="none" x="0" y="0" width="36" height="36"></rect>
      <path
        d="M34,18 C34,9.163444 26.836556,2 18,2 C11.6597233,2 6.18078805,5.68784135 3.59122325,11.0354951"
        stroke="url(#linearGradient-1)" stroke-width="4" stroke-linecap="round"></path>
    </g>
  </symbol>
</svg>
