<svg xmlns="http://www.w3.org/2000/svg" xmlns:xlink="http://www.w3.org/1999/xlink"
  style="display:none">

  <!-- home -->
  <symbol id="home">
    <path fill="currentColor"
      d="M11.336 2.253a1 1 0 0 1 1.328 0l9 8a1 1 0 0 1-1.328 1.494L20 11.45V19a2 2 0 0 1-2 2H6a2 2 0 0 1-2-2v-7.55l-.336.297a1 1 0 0 1-1.328-1.494zM6 9.67V19h3v-5a1 1 0 0 1 1-1h4a1 1 0 0 1 1 1v5h3V9.671l-6-5.333zM13 19v-4h-2v4z" />
  </symbol>

    <symbol id="languages">
    <path fill="none" stroke="currentColor" stroke-linecap="round" stroke-linejoin="round" stroke-width="1.5" d="M8 12h.009m3.986 0h.01m3.986 0H16m2 9c1.232 0 2.231-1.151 2.231-2.571c0-2.248-.1-3.742 1.442-5.52c.436-.502.436-1.316 0-1.818c-1.542-1.777-1.442-3.272-1.442-5.52C20.231 4.151 19.232 3 18 3M6 21c-1.232 0-2.231-1.151-2.231-2.571c0-2.248.1-3.742-1.442-5.52c-.436-.502-.436-1.316 0-1.818C3.835 9.353 3.769 7.84 3.769 5.57C3.769 4.151 4.768 3 6 3" color="currentColor"/>
  </symbol>

    <symbol id="arrowbottom">
    <path fill-rule="evenodd"
      d="M5.22 8.22a.75.75 0 0 1 1.06 0L10 11.94l3.72-3.72a.75.75 0 1 1 1.06 1.06l-4.25 4.25a.75.75 0 0 1-1.06 0L5.22 9.28a.75.75 0 0 1 0-1.06Z"
      clip-rule="evenodd" />
  </symbol>

    <symbol id="user">
    <g fill="none" stroke="currentColor" stroke-linecap="round" stroke-linejoin="round"
      stroke-width="2">
      <path d="M19 21v-2a4 4 0 0 0-4-4H9a4 4 0 0 0-4 4v2" />
      <circle cx="12" cy="7" r="4" />
    </g>
  </symbol>

    <symbol id="goout">
    <path fill="#DF3636"
      d="M5 21q-.825 0-1.412-.587T3 19V5q0-.825.588-1.412T5 3h6q.425 0 .713.288T12 4t-.288.713T11 5H5v14h6q.425 0 .713.288T12 20t-.288.713T11 21zm12.175-8H10q-.425 0-.712-.288T9 12t.288-.712T10 11h7.175L15.3 9.125q-.275-.275-.275-.675t.275-.7t.7-.313t.725.288L20.3 11.3q.3.3.3.7t-.3.7l-3.575 3.575q-.3.3-.712.288t-.713-.313q-.275-.3-.262-.712t.287-.688z" />
  </symbol>

</svg>
